<?xml version="1.0" encoding="UTF-8" standalone="no"?><!DOCTYPE svg PUBLIC "-//W3C//DTD SVG 1.1//EN" "http://www.w3.org/Graphics/SVG/1.1/DTD/svg11.dtd"><svg width="100%" height="100%" viewBox="0 0 12447 7115" version="1.1" xmlns="http://www.w3.org/2000/svg" xmlns:xlink="http://www.w3.org/1999/xlink" xml:space="preserve" xmlns:serif="http://www.serif.com/" style="fill-rule:evenodd;clip-rule:evenodd;stroke-linejoin:round;stroke-miterlimit:2;"><path d="M7515.709,1184.437c-7.5,61.867 -10.458,123.487 -8.5,183.841c7.542,229.013 113.5,502.309 328.459,613.471c267.916,138.521 604.499,-5.304 885.833,86.337c435.709,141.95 797.958,718.338 1292.959,401.408c365,-233.687 497.334,-793.525 420,-1196.396c-135.875,-707.716 -777.125,-1245.329 -1494.417,-1271.925c-460.125,-17.058 -913.666,151.3 -1178.583,534.45c-127.588,184.512 -217.875,418.358 -245.75,648.812Z" style="fill:#f4f7fd;fill-rule:nonzero;"/><path d="M652.233,7097.795l11003.35,0c335.791,-765.375 469.249,-1618.458 359.833,-2447.083c-56.459,-427.167 -183.041,-864.292 -478.666,-1177.713c-187.417,-198.675 -432.126,-335.588 -687.001,-433.783c-625.167,-240.892 -1333.709,-258.613 -1970.125,-49.279c-418.375,137.608 -839.625,373.225 -1271.375,286.392c-188.125,-37.829 -358.833,-135.208 -517.292,-243.383c-847.125,-578.233 -1495.625,-1524.641 -2497.875,-1742.475c-648.166,-140.871 -1338.958,67.513 -1878.483,453.35c-539.538,385.838 -943.258,934.279 -1267.883,1512.717c-655.604,1168.175 -988.883,2515.883 -794.483,3841.258Z" style="fill:#f4f7fd;fill-rule:nonzero;"/><clipPath id="_clip1"><path d="M652.233,7097.795l11003.35,0c335.791,-765.375 469.249,-1618.458 359.833,-2447.083c-56.459,-427.167 -183.041,-864.292 -478.666,-1177.713c-187.417,-198.675 -432.126,-335.588 -687.001,-433.783c-625.167,-240.892 -1333.709,-258.613 -1970.125,-49.279c-418.375,137.608 -839.625,373.225 -1271.375,286.392c-188.125,-37.829 -358.833,-135.208 -517.292,-243.383c-847.125,-578.233 -1495.625,-1524.641 -2497.875,-1742.475c-648.166,-140.871 -1338.958,67.513 -1878.483,453.35c-539.538,385.838 -943.258,934.279 -1267.883,1512.717c-655.604,1168.175 -988.883,2515.883 -794.483,3841.258Z" clip-rule="nonzero"/></clipPath><g clip-path="url(#_clip1)"><path d="M11655.584,7097.795l-11003.35,0c-37.208,-253.667 -55.088,-508.167 -55.071,-762.083c0.025,-394.625 43.283,-787.875 124.338,-1174.292c397.442,-99.667 807.112,-149.5 1216.9,-149.5c448.246,0 896.65,59.708 1328.683,179.292c153.416,42.458 304.5,92.167 454.25,145.833l-515,890.083c-16.417,28.333 -6.713,64.583 21.625,81l63.834,36.917c-4.917,24.25 5.833,49.958 28.416,63.042l224.291,129.792c9.333,5.417 19.542,7.958 29.625,7.958c20.458,0 40.375,-10.583 51.375,-29.583l576.458,-996.333c280.917,110.5 561.458,222.375 849.042,313.208c494.041,156.083 1007.917,249.333 1525.333,276.792c74.667,3.958 149.834,6.5 224.958,6.5c225.292,0 450.334,-22.792 661.662,-97.917c379.838,-135 680.713,-425.25 965.255,-710.792c460.916,-462.583 918.667,-939.458 1474,-1283c380.499,-235.375 812.999,-403.875 1261.5,-439.625c56.833,-4.5 113.791,-6.875 170.792,-6.875c65.5,0 131.041,3.125 196.249,9.5c33.417,3.292 69.958,3.834 106.75,5.208c224.708,299.959 328.375,682.708 377.916,1057.792c25.083,190.166 37.417,381.583 37.458,573c0.042,642.542 -138.542,1284.333 -397.291,1874.083Z" style="fill:#e1edfc;fill-rule:nonzero;"/></g><path d="M7897.875,4162.67l-5079.05,0c-55.037,0 -99.658,-44.583 -99.658,-99.625l0,-3363.262c0,-55.042 44.621,-99.663 99.658,-99.663l5079.05,0c55.042,0 99.666,44.621 99.666,99.663l0,3363.262c0,55.042 -44.625,99.625 -99.666,99.625Z" style="fill:#cce6ff;fill-rule:nonzero;"/><clipPath id="_clip2"><path d="M7897.875,4162.67l-5079.05,0c-55.037,0 -99.658,-44.583 -99.658,-99.625l0,-3363.262c0,-55.042 44.621,-99.663 99.658,-99.663l5079.05,0c55.042,0 99.666,44.621 99.666,99.663l0,3363.262c0,55.042 -44.625,99.625 -99.666,99.625Z" clip-rule="nonzero"/></clipPath><g clip-path="url(#_clip2)"><rect x="2459.442" y="397.599" width="5777.35" height="591.404" style="fill:#102a54;fill-rule:nonzero;"/></g><path d="M3070.742,811.074c0,39.875 -32.325,72.2 -72.2,72.2c-39.875,0 -72.2,-32.325 -72.2,-72.2c0,-39.875 32.325,-72.204 72.2,-72.204c39.875,0 72.2,32.329 72.2,72.204Z" style="fill:#3c94f8;fill-rule:nonzero;"/><path d="M3333,811.074c0,39.875 -32.333,72.2 -72.208,72.2c-39.875,0 -72.208,-32.325 -72.208,-72.2c0,-39.875 32.333,-72.204 72.208,-72.204c39.875,0 72.208,32.329 72.208,72.204Z" style="fill:#fff;fill-rule:nonzero;"/><path d="M3595.208,811.074c0,39.875 -32.292,72.2 -72.166,72.2c-39.917,0 -72.209,-32.325 -72.209,-72.2c0,-39.875 32.292,-72.204 72.209,-72.204c39.875,0 72.166,32.329 72.166,72.204Z" style="fill:#fff;fill-rule:nonzero;"/><path d="M2802.804,566.045c-65.925,0 -119.554,53.63 -119.554,119.554l0,3310.946c0,65.916 53.629,119.583 119.554,119.583l5026.779,0c65.917,0 119.542,-53.667 119.542,-119.583l0,-3310.946c0,-65.925 -53.625,-119.554 -119.542,-119.554l-5026.779,0Zm5026.779,3562.583l-5026.779,0c-72.817,0 -132.054,-59.25 -132.054,-132.083l0,-3310.946c0,-72.816 59.237,-132.054 132.054,-132.054l5026.779,0c72.793,0 132.042,59.238 132.042,132.054l0,3310.946c0,72.833 -59.25,132.083 -132.042,132.083Z" style="fill:#102a54;fill-rule:nonzero;"/><path d="M4323.5,3817.837l-1318.392,0c-28.358,0 -51.346,-23 -51.346,-51.333l0,-2407.367c0,-28.358 22.988,-51.346 51.346,-51.346l1318.392,0c28.333,0 51.333,22.987 51.333,51.346l0,2407.367c0,28.333 -23,51.333 -51.333,51.333Z" style="fill:#f4f7fd;fill-rule:nonzero;"/><path d="M3568.542,2128.008l-505.358,0c-13.017,0 -23.566,-10.55 -23.566,-23.563l0,-657.525c0,-13.013 10.55,-23.567 23.566,-23.567l505.358,0c13,0 23.542,10.554 23.542,23.567l0,657.525c0,13.012 -10.542,23.563 -23.542,23.563Z" style="fill:#cce6ff;fill-rule:nonzero;"/><path d="M3777.375,1467.483c0,24.375 -19.75,44.129 -44.125,44.129c-24.375,0 -44.125,-19.754 -44.125,-44.129c0,-24.371 19.75,-44.129 44.125,-44.129c24.375,0 44.125,19.759 44.125,44.129Z" style="fill:#cce6ff;fill-rule:nonzero;"/><path d="M4290.042,1451.641l-423.542,0c-5.208,0 -9.417,-4.221 -9.417,-9.429c0,-5.208 4.208,-9.429 9.417,-9.429l423.542,0c5.208,0 9.458,4.221 9.458,9.429c0,5.208 -4.25,9.429 -9.458,9.429Z" style="fill:#cce6ff;fill-rule:nonzero;"/><path d="M4290.042,1502.183l-423.542,0c-5.208,0 -9.417,-4.221 -9.417,-9.425c0,-5.208 4.208,-9.429 9.417,-9.429l423.542,0c5.208,0 9.458,4.221 9.458,9.429c0,5.204 -4.25,9.425 -9.458,9.425Z" style="fill:#cce6ff;fill-rule:nonzero;"/><path d="M4290.042,1552.729l-423.542,0c-5.208,0 -9.417,-4.221 -9.417,-9.429c0,-5.208 4.208,-9.429 9.417,-9.429l423.542,0c5.208,0 9.458,4.221 9.458,9.429c0,5.208 -4.25,9.429 -9.458,9.429Z" style="fill:#cce6ff;fill-rule:nonzero;"/><path d="M3777.375,1651.054c0,24.371 -19.75,44.129 -44.125,44.129c-24.375,0 -44.125,-19.758 -44.125,-44.129c0,-24.371 19.75,-44.129 44.125,-44.129c24.375,0 44.125,19.758 44.125,44.129Z" style="fill:#cce6ff;fill-rule:nonzero;"/><path d="M4290.042,1635.212l-423.542,0c-5.208,0 -9.417,-4.225 -9.417,-9.429c0,-5.208 4.208,-9.429 9.417,-9.429l423.542,0c5.208,0 9.458,4.221 9.458,9.429c0,5.204 -4.25,9.429 -9.458,9.429Z" style="fill:#cce6ff;fill-rule:nonzero;"/><path d="M4290.042,1685.753l-423.542,0c-5.208,0 -9.417,-4.221 -9.417,-9.429c0,-5.208 4.208,-9.429 9.417,-9.429l423.542,0c5.208,0 9.458,4.221 9.458,9.429c0,5.208 -4.25,9.429 -9.458,9.429Z" style="fill:#cce6ff;fill-rule:nonzero;"/><path d="M4290.042,1736.299l-423.542,0c-5.208,0 -9.417,-4.225 -9.417,-9.429c0,-5.208 4.208,-9.429 9.417,-9.429l423.542,0c5.208,0 9.458,4.221 9.458,9.429c0,5.204 -4.25,9.429 -9.458,9.429Z" style="fill:#cce6ff;fill-rule:nonzero;"/><path d="M3777.375,1834.624c0,24.371 -19.75,44.129 -44.125,44.129c-24.375,0 -44.125,-19.759 -44.125,-44.129c0,-24.375 19.75,-44.129 44.125,-44.129c24.375,0 44.125,19.754 44.125,44.129Z" style="fill:#cce6ff;fill-rule:nonzero;"/><path d="M4290.042,1818.778l-423.542,0c-5.208,0 -9.417,-4.221 -9.417,-9.429c0,-5.204 4.208,-9.429 9.417,-9.429l423.542,0c5.208,0 9.458,4.225 9.458,9.429c0,5.208 -4.25,9.429 -9.458,9.429Z" style="fill:#cce6ff;fill-rule:nonzero;"/><path d="M4290.042,1869.324l-423.542,0c-5.208,0 -9.417,-4.221 -9.417,-9.429c0,-5.208 4.208,-9.429 9.417,-9.429l423.542,0c5.208,0 9.458,4.221 9.458,9.429c0,5.208 -4.25,9.429 -9.458,9.429Z" style="fill:#cce6ff;fill-rule:nonzero;"/><path d="M4290.042,1919.866l-423.542,0c-5.208,0 -9.417,-4.221 -9.417,-9.429c0,-5.204 4.208,-9.425 9.417,-9.425l423.542,0c5.208,0 9.458,4.221 9.458,9.425c0,5.208 -4.25,9.429 -9.458,9.429Z" style="fill:#cce6ff;fill-rule:nonzero;"/><path d="M3777.375,2018.191c0,24.371 -19.75,44.129 -44.125,44.129c-24.375,0 -44.125,-19.759 -44.125,-44.129c0,-24.371 19.75,-44.129 44.125,-44.129c24.375,0 44.125,19.758 44.125,44.129Z" style="fill:#cce6ff;fill-rule:nonzero;"/><path d="M4290.042,2002.349l-423.542,0c-5.208,0 -9.417,-4.221 -9.417,-9.429c0,-5.208 4.208,-9.429 9.417,-9.429l423.542,0c5.208,0 9.458,4.221 9.458,9.429c0,5.208 -4.25,9.429 -9.458,9.429Z" style="fill:#cce6ff;fill-rule:nonzero;"/><path d="M4290.042,2052.891l-423.542,0c-5.208,0 -9.417,-4.221 -9.417,-9.429c0,-5.204 4.208,-9.425 9.417,-9.425l423.542,0c5.208,0 9.458,4.221 9.458,9.425c0,5.208 -4.25,9.429 -9.458,9.429Z" style="fill:#cce6ff;fill-rule:nonzero;"/><path d="M4290.042,2103.437l-423.542,0c-5.208,0 -9.417,-4.221 -9.417,-9.429c0,-5.208 4.208,-9.429 9.417,-9.429l423.542,0c5.208,0 9.458,4.221 9.458,9.429c0,5.208 -4.25,9.429 -9.458,9.429Z" style="fill:#cce6ff;fill-rule:nonzero;"/><path d="M3563.292,2906.662l-505.362,0c-13.012,0 -23.562,-10.55 -23.562,-23.567l0,-657.521c0,-13.016 10.55,-23.567 23.562,-23.567l505.362,0c13,0 23.542,10.55 23.542,23.567l0,657.521c0,13.017 -10.542,23.567 -23.542,23.567Z" style="fill:#cce6ff;fill-rule:nonzero;"/><path d="M3772.125,2246.137c0,24.371 -19.75,44.129 -44.125,44.129c-24.375,0 -44.125,-19.758 -44.125,-44.129c0,-24.371 19.75,-44.129 44.125,-44.129c24.375,0 44.125,19.759 44.125,44.129Z" style="fill:#cce6ff;fill-rule:nonzero;"/><path d="M4284.792,2230.291l-423.542,0c-5.208,0 -9.417,-4.221 -9.417,-9.429c0,-5.204 4.208,-9.425 9.417,-9.425l423.542,0c5.208,0 9.458,4.221 9.458,9.425c0,5.208 -4.25,9.429 -9.458,9.429Z" style="fill:#cce6ff;fill-rule:nonzero;"/><path d="M4284.792,2280.837l-423.542,0c-5.208,0 -9.417,-4.221 -9.417,-9.429c0,-5.208 4.208,-9.429 9.417,-9.429l423.542,0c5.208,0 9.458,4.221 9.458,9.429c0,5.208 -4.25,9.429 -9.458,9.429Z" style="fill:#cce6ff;fill-rule:nonzero;"/><path d="M4284.792,2331.378l-423.542,0c-5.208,0 -9.417,-4.221 -9.417,-9.425c0,-5.208 4.208,-9.429 9.417,-9.429l423.542,0c5.208,0 9.458,4.221 9.458,9.429c0,5.204 -4.25,9.425 -9.458,9.425Z" style="fill:#cce6ff;fill-rule:nonzero;"/><path d="M3772.125,2429.704c0,24.375 -19.75,44.129 -44.125,44.129c-24.375,0 -44.125,-19.754 -44.125,-44.129c0,-24.371 19.75,-44.129 44.125,-44.129c24.375,0 44.125,19.759 44.125,44.129Z" style="fill:#cce6ff;fill-rule:nonzero;"/><path d="M4284.792,2413.862l-423.542,0c-5.208,0 -9.417,-4.221 -9.417,-9.429c0,-5.208 4.208,-9.429 9.417,-9.429l423.542,0c5.208,0 9.458,4.221 9.458,9.429c0,5.208 -4.25,9.429 -9.458,9.429Z" style="fill:#cce6ff;fill-rule:nonzero;"/><path d="M4284.792,2464.404l-423.542,0c-5.208,0 -9.417,-4.221 -9.417,-9.425c0,-5.208 4.208,-9.429 9.417,-9.429l423.542,0c5.208,0 9.458,4.221 9.458,9.429c0,5.204 -4.25,9.425 -9.458,9.425Z" style="fill:#cce6ff;fill-rule:nonzero;"/><path d="M4284.792,2514.949l-423.542,0c-5.208,0 -9.417,-4.221 -9.417,-9.429c0,-5.208 4.208,-9.429 9.417,-9.429l423.542,0c5.208,0 9.458,4.221 9.458,9.429c0,5.208 -4.25,9.429 -9.458,9.429Z" style="fill:#cce6ff;fill-rule:nonzero;"/><path d="M3772.125,2613.274c0,24.371 -19.75,44.129 -44.125,44.129c-24.375,0 -44.125,-19.758 -44.125,-44.129c0,-24.371 19.75,-44.129 44.125,-44.129c24.375,0 44.125,19.759 44.125,44.129Z" style="fill:#cce6ff;fill-rule:nonzero;"/><path d="M4284.792,2597.428l-423.542,0c-5.208,0 -9.417,-4.221 -9.417,-9.425c0,-5.208 4.208,-9.429 9.417,-9.429l423.542,0c5.208,0 9.458,4.221 9.458,9.429c0,5.204 -4.25,9.425 -9.458,9.425Z" style="fill:#cce6ff;fill-rule:nonzero;"/><path d="M4284.792,2647.974l-423.542,0c-5.208,0 -9.417,-4.221 -9.417,-9.429c0,-5.208 4.208,-9.429 9.417,-9.429l423.542,0c5.208,0 9.458,4.221 9.458,9.429c0,5.208 -4.25,9.429 -9.458,9.429Z" style="fill:#cce6ff;fill-rule:nonzero;"/><path d="M4284.792,2698.52l-423.542,0c-5.208,0 -9.417,-4.225 -9.417,-9.429c0,-5.208 4.208,-9.429 9.417,-9.429l423.542,0c5.208,0 9.458,4.221 9.458,9.429c0,5.204 -4.25,9.429 -9.458,9.429Z" style="fill:#cce6ff;fill-rule:nonzero;"/><path d="M3772.125,2796.845c0,24.371 -19.75,44.129 -44.125,44.129c-24.375,0 -44.125,-19.758 -44.125,-44.129c0,-24.375 19.75,-44.129 44.125,-44.129c24.375,0 44.125,19.754 44.125,44.129Z" style="fill:#cce6ff;fill-rule:nonzero;"/><path d="M4284.792,2780.999l-423.542,0c-5.208,0 -9.417,-4.221 -9.417,-9.429c0,-5.204 4.208,-9.429 9.417,-9.429l423.542,0c5.208,0 9.458,4.225 9.458,9.429c0,5.208 -4.25,9.429 -9.458,9.429Z" style="fill:#cce6ff;fill-rule:nonzero;"/><path d="M4284.792,2831.545l-423.542,0c-5.208,0 -9.417,-4.221 -9.417,-9.429c0,-5.208 4.208,-9.429 9.417,-9.429l423.542,0c5.208,0 9.458,4.221 9.458,9.429c0,5.208 -4.25,9.429 -9.458,9.429Z" style="fill:#cce6ff;fill-rule:nonzero;"/><path d="M4284.792,2882.087l-423.542,0c-5.208,0 -9.417,-4.221 -9.417,-9.429c0,-5.204 4.208,-9.425 9.417,-9.425l423.542,0c5.208,0 9.458,4.221 9.458,9.425c0,5.208 -4.25,9.429 -9.458,9.429Z" style="fill:#cce6ff;fill-rule:nonzero;"/><path d="M3558.042,3685.295l-505.362,0c-13.017,0 -23.566,-10.537 -23.566,-23.537l0,-657.533c0,-13.017 10.55,-23.567 23.566,-23.567l505.362,0c13,0 23.542,10.55 23.542,23.567l0,657.533c0,13 -10.542,23.537 -23.542,23.537Z" style="fill:#cce6ff;fill-rule:nonzero;"/><path d="M3766.875,3024.787c0,24.371 -19.75,44.129 -44.125,44.129c-24.375,0 -44.125,-19.759 -44.125,-44.129c0,-24.371 19.75,-44.129 44.125,-44.129c24.375,0 44.125,19.758 44.125,44.129Z" style="fill:#cce6ff;fill-rule:nonzero;"/><path d="M4279.542,3008.941l-423.542,0c-5.208,0 -9.458,-4.221 -9.458,-9.425c0,-5.208 4.25,-9.429 9.458,-9.429l423.542,0c5.208,0 9.458,4.221 9.458,9.429c0,5.204 -4.25,9.425 -9.458,9.425Z" style="fill:#cce6ff;fill-rule:nonzero;"/><path d="M4279.542,3059.487l-423.542,0c-5.208,0 -9.458,-4.221 -9.458,-9.429c0,-5.204 4.25,-9.425 9.458,-9.425l423.542,0c5.208,0 9.458,4.221 9.458,9.425c0,5.208 -4.25,9.429 -9.458,9.429Z" style="fill:#cce6ff;fill-rule:nonzero;"/><path d="M4279.542,3110.032l-423.542,0c-5.208,0 -9.458,-4.225 -9.458,-9.429c0,-5.208 4.25,-9.429 9.458,-9.429l423.542,0c5.208,0 9.458,4.221 9.458,9.429c0,5.204 -4.25,9.429 -9.458,9.429Z" style="fill:#cce6ff;fill-rule:nonzero;"/><path d="M3766.875,3208.358c0,24.371 -19.75,44.129 -44.125,44.129c-24.375,0 -44.125,-19.759 -44.125,-44.129c0,-24.371 19.75,-44.129 44.125,-44.129c24.375,0 44.125,19.758 44.125,44.129Z" style="fill:#cce6ff;fill-rule:nonzero;"/><path d="M4279.542,3192.512l-423.542,0c-5.208,0 -9.458,-4.221 -9.458,-9.425c0,-5.213 4.25,-9.433 9.458,-9.433l423.542,0c5.208,0 9.458,4.221 9.458,9.433c0,5.204 -4.25,9.425 -9.458,9.425Z" style="fill:#cce6ff;fill-rule:nonzero;"/><path d="M4279.542,3243.058l-423.542,0c-5.208,0 -9.458,-4.221 -9.458,-9.429c0,-5.208 4.25,-9.429 9.458,-9.429l423.542,0c5.208,0 9.458,4.221 9.458,9.429c0,5.208 -4.25,9.429 -9.458,9.429Z" style="fill:#cce6ff;fill-rule:nonzero;"/><path d="M4279.542,3293.603l-423.542,0c-5.208,0 -9.458,-4.221 -9.458,-9.433c0,-5.204 4.25,-9.425 9.458,-9.425l423.542,0c5.208,0 9.458,4.221 9.458,9.425c0,5.212 -4.25,9.433 -9.458,9.433Z" style="fill:#cce6ff;fill-rule:nonzero;"/><path d="M3766.875,3391.924c0,24.375 -19.75,44.129 -44.125,44.129c-24.375,0 -44.125,-19.754 -44.125,-44.129c0,-24.371 19.75,-44.129 44.125,-44.129c24.375,0 44.125,19.759 44.125,44.129Z" style="fill:#cce6ff;fill-rule:nonzero;"/><path d="M4279.542,3376.083l-423.542,0c-5.208,0 -9.458,-4.221 -9.458,-9.429c0,-5.204 4.25,-9.429 9.458,-9.429l423.542,0c5.208,0 9.458,4.225 9.458,9.429c0,5.208 -4.25,9.429 -9.458,9.429Z" style="fill:#cce6ff;fill-rule:nonzero;"/><path d="M4279.542,3426.624l-423.542,0c-5.208,0 -9.458,-4.221 -9.458,-9.425c0,-5.208 4.25,-9.429 9.458,-9.429l423.542,0c5.208,0 9.458,4.221 9.458,9.429c0,5.204 -4.25,9.425 -9.458,9.425Z" style="fill:#cce6ff;fill-rule:nonzero;"/><path d="M4279.542,3477.17l-423.542,0c-5.208,0 -9.458,-4.221 -9.458,-9.429c0,-5.208 4.25,-9.425 9.458,-9.425l423.542,0c5.208,0 9.458,4.217 9.458,9.425c0,5.208 -4.25,9.429 -9.458,9.429Z" style="fill:#cce6ff;fill-rule:nonzero;"/><path d="M3766.875,3575.503c0,24.375 -19.75,44.125 -44.125,44.125c-24.375,0 -44.125,-19.75 -44.125,-44.125c0,-24.379 19.75,-44.137 44.125,-44.137c24.375,0 44.125,19.758 44.125,44.137Z" style="fill:#cce6ff;fill-rule:nonzero;"/><path d="M4279.542,3559.67l-423.542,0c-5.208,0 -9.458,-4.242 -9.458,-9.446c0,-5.208 4.25,-9.429 9.458,-9.429l423.542,0c5.208,0 9.458,4.221 9.458,9.429c0,5.204 -4.25,9.446 -9.458,9.446Z" style="fill:#cce6ff;fill-rule:nonzero;"/><path d="M4279.542,3610.212l-423.542,0c-5.208,0 -9.458,-4.25 -9.458,-9.458c0,-5.208 4.25,-9.416 9.458,-9.416l423.542,0c5.208,0 9.458,4.208 9.458,9.416c0,5.208 -4.25,9.458 -9.458,9.458Z" style="fill:#cce6ff;fill-rule:nonzero;"/><path d="M4279.542,3660.753l-423.542,0c-5.208,0 -9.458,-4.25 -9.458,-9.458c0,-5.208 4.25,-9.417 9.458,-9.417l423.542,0c5.208,0 9.458,4.208 9.458,9.417c0,5.208 -4.25,9.458 -9.458,9.458Z" style="fill:#cce6ff;fill-rule:nonzero;"/><path d="M3482.5,1788.791l-341.625,0c-10.875,0 -19.667,-8.804 -19.667,-19.662l0,-267.838c0,-10.858 8.792,-19.667 19.667,-19.667l341.625,0c10.875,0 19.667,8.808 19.667,19.667l0,267.838c0,10.859 -8.792,19.662 -19.667,19.662Z" style="fill:#f4f7fd;fill-rule:nonzero;"/><path d="M3490.458,1859.895l-357.542,0c-6.458,0 -11.708,-5.246 -11.708,-11.717l0,-1.842c0,-6.471 5.25,-11.713 11.708,-11.713l357.542,0c6.459,0 11.709,5.242 11.709,11.713l0,1.842c0,6.471 -5.25,11.717 -11.709,11.717Z" style="fill:#f4f7fd;fill-rule:nonzero;"/><path d="M3490.458,1913.645l-357.542,0c-6.458,0 -11.708,-5.246 -11.708,-11.713l0,-1.846c0,-6.467 5.25,-11.713 11.708,-11.713l357.542,0c6.459,0 11.709,5.246 11.709,11.713l0,1.846c0,6.467 -5.25,11.713 -11.709,11.713Z" style="fill:#f4f7fd;fill-rule:nonzero;"/><path d="M3490.458,1967.395l-357.542,0c-6.458,0 -11.708,-5.242 -11.708,-11.713l0,-1.842c0,-6.471 5.25,-11.717 11.708,-11.717l357.542,0c6.459,0 11.709,5.246 11.709,11.717l0,1.842c0,6.471 -5.25,11.713 -11.709,11.713Z" style="fill:#f4f7fd;fill-rule:nonzero;"/><path d="M3490.458,2021.149l-357.542,0c-6.458,0 -11.708,-5.246 -11.708,-11.717l0,-1.842c0,-6.471 5.25,-11.713 11.708,-11.713l357.542,0c6.459,0 11.709,5.242 11.709,11.713l0,1.842c0,6.471 -5.25,11.717 -11.709,11.717Z" style="fill:#f4f7fd;fill-rule:nonzero;"/><path d="M3490.458,2074.899l-357.542,0c-6.458,0 -11.708,-5.245 -11.708,-11.712l0,-1.842c0,-6.471 5.25,-11.717 11.708,-11.717l357.542,0c6.459,0 11.709,5.246 11.709,11.717l0,1.842c0,6.467 -5.25,11.712 -11.709,11.712Z" style="fill:#f4f7fd;fill-rule:nonzero;"/><path d="M3482.5,2564.862l-341.625,0c-10.875,0 -19.667,-8.804 -19.667,-19.662l0,-267.838c0,-10.859 8.792,-19.667 19.667,-19.667l341.625,0c10.875,0 19.667,8.808 19.667,19.667l0,267.838c0,10.858 -8.792,19.662 -19.667,19.662Z" style="fill:#f4f7fd;fill-rule:nonzero;"/><path d="M3490.458,2635.966l-357.542,0c-6.458,0 -11.708,-5.245 -11.708,-11.717l0,-1.841c0,-6.471 5.25,-11.717 11.708,-11.717l357.542,0c6.459,0 11.709,5.245 11.709,11.717l0,1.841c0,6.471 -5.25,11.717 -11.709,11.717Z" style="fill:#f4f7fd;fill-rule:nonzero;"/><path d="M3490.458,2689.716l-357.542,0c-6.458,0 -11.708,-5.246 -11.708,-11.713l0,-1.842c0,-6.471 5.25,-11.716 11.708,-11.716l357.542,0c6.459,0 11.709,5.245 11.709,11.716l0,1.842c0,6.467 -5.25,11.713 -11.709,11.713Z" style="fill:#f4f7fd;fill-rule:nonzero;"/><path d="M3490.458,2743.47l-357.542,0c-6.458,0 -11.708,-5.246 -11.708,-11.717l0,-1.842c0,-6.471 5.25,-11.717 11.708,-11.717l357.542,0c6.459,0 11.709,5.246 11.709,11.717l0,1.842c0,6.471 -5.25,11.717 -11.709,11.717Z" style="fill:#f4f7fd;fill-rule:nonzero;"/><path d="M3490.458,2797.22l-357.542,0c-6.458,0 -11.708,-5.246 -11.708,-11.717l0,-1.842c0,-6.471 5.25,-11.713 11.708,-11.713l357.542,0c6.459,0 11.709,5.242 11.709,11.713l0,1.842c0,6.471 -5.25,11.717 -11.709,11.717Z" style="fill:#f4f7fd;fill-rule:nonzero;"/><path d="M3490.458,2850.97l-357.542,0c-6.458,0 -11.708,-5.246 -11.708,-11.713l0,-1.842c0,-6.471 5.25,-11.717 11.708,-11.717l357.542,0c6.459,0 11.709,5.246 11.709,11.717l0,1.842c0,6.467 -5.25,11.713 -11.709,11.713Z" style="fill:#f4f7fd;fill-rule:nonzero;"/><path d="M3482.5,3340.932l-341.625,0c-10.875,0 -19.667,-8.804 -19.667,-19.662l0,-267.838c0,-10.862 8.792,-19.667 19.667,-19.667l341.625,0c10.875,0 19.667,8.804 19.667,19.667l0,267.838c0,10.858 -8.792,19.662 -19.667,19.662Z" style="fill:#f4f7fd;fill-rule:nonzero;"/><path d="M3490.458,3412.037l-357.542,0c-6.458,0 -11.708,-5.246 -11.708,-11.717l0,-1.842c0,-6.471 5.25,-11.717 11.708,-11.717l357.542,0c6.459,0 11.709,5.246 11.709,11.717l0,1.842c0,6.471 -5.25,11.717 -11.709,11.717Z" style="fill:#f4f7fd;fill-rule:nonzero;"/><path d="M3490.458,3465.787l-357.542,0c-6.458,0 -11.708,-5.246 -11.708,-11.716l0,-1.842c0,-6.467 5.25,-11.713 11.708,-11.713l357.542,0c6.459,0 11.709,5.246 11.709,11.713l0,1.842c0,6.47 -5.25,11.716 -11.709,11.716Z" style="fill:#f4f7fd;fill-rule:nonzero;"/><path d="M3490.458,3519.537l-357.542,0c-6.458,0 -11.708,-5.242 -11.708,-11.712l0,-1.842c0,-6.471 5.25,-11.717 11.708,-11.717l357.542,0c6.459,0 11.709,5.246 11.709,11.717l0,1.842c0,6.471 -5.25,11.712 -11.709,11.712Z" style="fill:#f4f7fd;fill-rule:nonzero;"/><path d="M3490.458,3573.295l-357.542,0c-6.458,0 -11.708,-5.25 -11.708,-11.708l0,-1.833c0,-6.492 5.25,-11.738 11.708,-11.738l357.542,0c6.459,0 11.709,5.246 11.709,11.738l0,1.833c0,6.458 -5.25,11.708 -11.709,11.708Z" style="fill:#f4f7fd;fill-rule:nonzero;"/><path d="M3490.458,3627.045l-357.542,0c-6.458,0 -11.708,-5.25 -11.708,-11.708l0,-1.833c0,-6.5 5.25,-11.75 11.708,-11.75l357.542,0c6.459,0 11.709,5.25 11.709,11.75l0,1.833c0,6.459 -5.25,11.708 -11.709,11.708Z" style="fill:#f4f7fd;fill-rule:nonzero;"/><path d="M7627.25,3817.837l-1318.375,0c-28.334,0 -51.334,-23 -51.334,-51.333l0,-2407.367c0,-28.358 23,-51.346 51.334,-51.346l1318.375,0c28.374,0 51.374,22.987 51.374,51.346l0,2407.367c0,28.333 -23,51.333 -51.374,51.333Z" style="fill:#f4f7fd;fill-rule:nonzero;"/><path d="M7553.042,1423.449l-412.417,0c-7.542,0 -13.625,-6.105 -13.625,-13.63c0,-7.529 6.083,-13.629 13.625,-13.629l412.417,0c7.542,0 13.667,6.1 13.667,13.629c0,7.525 -6.125,13.63 -13.667,13.63Z" style="fill:#cce6ff;fill-rule:nonzero;"/><path d="M7553.042,1485.779l-412.417,0c-7.542,0 -13.625,-6.1 -13.625,-13.629c0,-7.525 6.083,-13.625 13.625,-13.625l412.417,0c7.542,0 13.667,6.1 13.667,13.625c0,7.529 -6.125,13.629 -13.667,13.629Z" style="fill:#cce6ff;fill-rule:nonzero;"/><path d="M7553.042,1548.108l-412.417,0c-7.542,0 -13.625,-6.1 -13.625,-13.625c0,-7.529 6.083,-13.629 13.625,-13.629l412.417,0c7.542,0 13.667,6.1 13.667,13.629c0,7.525 -6.125,13.625 -13.667,13.625Z" style="fill:#cce6ff;fill-rule:nonzero;"/><path d="M7553.042,1610.441l-412.417,0c-7.542,0 -13.625,-6.1 -13.625,-13.629c0,-7.525 6.083,-13.625 13.625,-13.625l412.417,0c7.542,0 13.667,6.1 13.667,13.625c0,7.529 -6.125,13.629 -13.667,13.629Z" style="fill:#cce6ff;fill-rule:nonzero;"/><path d="M7553.042,1672.77l-412.417,0c-7.542,0 -13.625,-6.1 -13.625,-13.625c0,-7.529 6.083,-13.629 13.625,-13.629l412.417,0c7.542,0 13.667,6.1 13.667,13.629c0,7.525 -6.125,13.625 -13.667,13.625Z" style="fill:#cce6ff;fill-rule:nonzero;"/><path d="M7553.042,1735.104l-412.417,0c-7.542,0 -13.625,-6.105 -13.625,-13.63c0,-7.525 6.083,-13.629 13.625,-13.629l412.417,0c7.542,0 13.667,6.105 13.667,13.629c0,7.525 -6.125,13.63 -13.667,13.63Z" style="fill:#cce6ff;fill-rule:nonzero;"/><path d="M7553.042,1797.433l-412.417,0c-7.542,0 -13.625,-6.1 -13.625,-13.625c0,-7.529 6.083,-13.629 13.625,-13.629l412.417,0c7.542,0 13.667,6.1 13.667,13.629c0,7.525 -6.125,13.625 -13.667,13.625Z" style="fill:#cce6ff;fill-rule:nonzero;"/><path d="M7553.042,2982.557l-412.417,0c-7.542,0 -13.625,-6.104 -13.625,-13.629c0,-7.525 6.083,-13.629 13.625,-13.629l412.417,0c7.542,0 13.667,6.104 13.667,13.629c0,7.525 -6.125,13.629 -13.667,13.629Z" style="fill:#cce6ff;fill-rule:nonzero;"/><path d="M7553.042,3044.887l-412.417,0c-7.542,0 -13.625,-6.1 -13.625,-13.629c0,-7.525 6.083,-13.625 13.625,-13.625l412.417,0c7.542,0 13.667,6.1 13.667,13.625c0,7.529 -6.125,13.629 -13.667,13.629Z" style="fill:#cce6ff;fill-rule:nonzero;"/><path d="M7553.042,3107.216l-412.417,0c-7.542,0 -13.625,-6.1 -13.625,-13.625c0,-7.525 6.083,-13.629 13.625,-13.629l412.417,0c7.542,0 13.667,6.104 13.667,13.629c0,7.525 -6.125,13.625 -13.667,13.625Z" style="fill:#cce6ff;fill-rule:nonzero;"/><path d="M7553.042,3169.549l-412.417,0c-7.542,0 -13.625,-6.1 -13.625,-13.629c0,-7.525 6.083,-13.625 13.625,-13.625l412.417,0c7.542,0 13.667,6.1 13.667,13.625c0,7.529 -6.125,13.629 -13.667,13.629Z" style="fill:#cce6ff;fill-rule:nonzero;"/><path d="M7553.042,3231.878l-412.417,0c-7.542,0 -13.625,-6.1 -13.625,-13.625c0,-7.529 6.083,-13.629 13.625,-13.629l412.417,0c7.542,0 13.667,6.1 13.667,13.629c0,7.525 -6.125,13.625 -13.667,13.625Z" style="fill:#cce6ff;fill-rule:nonzero;"/><path d="M7553.042,3294.212l-412.417,0c-7.542,0 -13.625,-6.104 -13.625,-13.629c0,-7.525 6.083,-13.625 13.625,-13.625l412.417,0c7.542,0 13.667,6.1 13.667,13.625c0,7.525 -6.125,13.629 -13.667,13.629Z" style="fill:#cce6ff;fill-rule:nonzero;"/><path d="M7553.042,3356.541l-412.417,0c-7.542,0 -13.625,-6.1 -13.625,-13.625c0,-7.529 6.083,-13.63 13.625,-13.63l412.417,0c7.542,0 13.667,6.1 13.667,13.63c0,7.525 -6.125,13.625 -13.667,13.625Z" style="fill:#cce6ff;fill-rule:nonzero;"/><path d="M7553.042,3426.512l-412.417,0c-7.542,0 -13.625,-6.1 -13.625,-13.625c0,-7.529 6.083,-13.629 13.625,-13.629l412.417,0c7.542,0 13.667,6.1 13.667,13.629c0,7.525 -6.125,13.625 -13.667,13.625Z" style="fill:#cce6ff;fill-rule:nonzero;"/><path d="M7553.042,3488.845l-412.417,0c-7.542,0 -13.625,-6.104 -13.625,-13.629c0,-7.525 6.083,-13.625 13.625,-13.625l412.417,0c7.542,0 13.667,6.1 13.667,13.625c0,7.525 -6.125,13.629 -13.667,13.629Z" style="fill:#cce6ff;fill-rule:nonzero;"/><path d="M7553.042,3551.174l-412.417,0c-7.542,0 -13.625,-6.1 -13.625,-13.625c0,-7.529 6.083,-13.629 13.625,-13.629l412.417,0c7.542,0 13.667,6.1 13.667,13.629c0,7.525 -6.125,13.625 -13.667,13.625Z" style="fill:#cce6ff;fill-rule:nonzero;"/><path d="M7553.042,3613.503l-412.417,0c-7.542,0 -13.625,-6.083 -13.625,-13.625c0,-7.542 6.083,-13.625 13.625,-13.625l412.417,0c7.542,0 13.667,6.083 13.667,13.625c0,7.542 -6.125,13.625 -13.667,13.625Z" style="fill:#cce6ff;fill-rule:nonzero;"/><path d="M7553.042,3675.841l-412.417,0c-7.542,0 -13.625,-6.087 -13.625,-13.625c0,-7.546 6.083,-13.629 13.625,-13.629l412.417,0c7.542,0 13.667,6.083 13.667,13.629c0,7.537 -6.125,13.625 -13.667,13.625Z" style="fill:#cce6ff;fill-rule:nonzero;"/><path d="M7553.042,3738.17l-412.417,0c-7.542,0 -13.625,-6.079 -13.625,-13.625c0,-7.542 6.083,-13.625 13.625,-13.625l412.417,0c7.542,0 13.667,6.083 13.667,13.625c0,7.546 -6.125,13.625 -13.667,13.625Z" style="fill:#cce6ff;fill-rule:nonzero;"/><path d="M7553.042,1859.766l-412.417,0c-7.542,0 -13.625,-6.104 -13.625,-13.629c0,-7.525 6.083,-13.629 13.625,-13.629l412.417,0c7.542,0 13.667,6.104 13.667,13.629c0,7.525 -6.125,13.629 -13.667,13.629Z" style="fill:#cce6ff;fill-rule:nonzero;"/><path d="M7553.042,1922.095l-412.417,0c-7.542,0 -13.625,-6.1 -13.625,-13.629c0,-7.525 6.083,-13.625 13.625,-13.625l412.417,0c7.542,0 13.667,6.1 13.667,13.625c0,7.529 -6.125,13.629 -13.667,13.629Z" style="fill:#cce6ff;fill-rule:nonzero;"/><path d="M7553.042,1984.428l-412.417,0c-7.542,0 -13.625,-6.104 -13.625,-13.629c0,-7.525 6.083,-13.629 13.625,-13.629l412.417,0c7.542,0 13.667,6.105 13.667,13.629c0,7.525 -6.125,13.629 -13.667,13.629Z" style="fill:#cce6ff;fill-rule:nonzero;"/><path d="M7553.042,2046.758l-412.417,0c-7.542,0 -13.625,-6.1 -13.625,-13.629c0,-7.525 6.083,-13.625 13.625,-13.625l412.417,0c7.542,0 13.667,6.1 13.667,13.625c0,7.529 -6.125,13.629 -13.667,13.629Z" style="fill:#cce6ff;fill-rule:nonzero;"/><path d="M7553.042,2109.087l-412.417,0c-7.542,0 -13.625,-6.1 -13.625,-13.625c0,-7.525 6.083,-13.629 13.625,-13.629l412.417,0c7.542,0 13.667,6.104 13.667,13.629c0,7.525 -6.125,13.625 -13.667,13.625Z" style="fill:#cce6ff;fill-rule:nonzero;"/><path d="M7553.042,2171.42l-412.417,0c-7.542,0 -13.625,-6.1 -13.625,-13.629c0,-7.525 6.083,-13.625 13.625,-13.625l412.417,0c7.542,0 13.667,6.1 13.667,13.625c0,7.529 -6.125,13.629 -13.667,13.629Z" style="fill:#cce6ff;fill-rule:nonzero;"/><path d="M7553.042,2233.749l-412.417,0c-7.542,0 -13.625,-6.1 -13.625,-13.625c0,-7.529 6.083,-13.629 13.625,-13.629l412.417,0c7.542,0 13.667,6.1 13.667,13.629c0,7.525 -6.125,13.625 -13.667,13.625Z" style="fill:#cce6ff;fill-rule:nonzero;"/><path d="M7553.042,2296.082l-412.417,0c-7.542,0 -13.625,-6.1 -13.625,-13.629c0,-7.525 6.083,-13.625 13.625,-13.625l412.417,0c7.542,0 13.667,6.1 13.667,13.625c0,7.529 -6.125,13.629 -13.667,13.629Z" style="fill:#cce6ff;fill-rule:nonzero;"/><path d="M7553.042,2358.412l-412.417,0c-7.542,0 -13.625,-6.1 -13.625,-13.625c0,-7.529 6.083,-13.629 13.625,-13.629l412.417,0c7.542,0 13.667,6.1 13.667,13.629c0,7.525 -6.125,13.625 -13.667,13.625Z" style="fill:#cce6ff;fill-rule:nonzero;"/><path d="M6995.583,2499.591l-612.5,0c-7.5,0 -13.625,-6.1 -13.625,-13.625c0,-7.525 6.125,-13.629 13.625,-13.629l612.5,0c7.5,0 13.625,6.105 13.625,13.629c0,7.525 -6.125,13.625 -13.625,13.625Z" style="fill:#cce6ff;fill-rule:nonzero;"/><path d="M6995.583,2561.924l-612.5,0c-7.5,0 -13.625,-6.1 -13.625,-13.629c0,-7.525 6.125,-13.625 13.625,-13.625l612.5,0c7.5,0 13.625,6.1 13.625,13.625c0,7.529 -6.125,13.629 -13.625,13.629Z" style="fill:#cce6ff;fill-rule:nonzero;"/><path d="M6995.583,2624.254l-612.5,0c-7.5,0 -13.625,-6.1 -13.625,-13.625c0,-7.525 6.125,-13.629 13.625,-13.629l612.5,0c7.5,0 13.625,6.104 13.625,13.629c0,7.525 -6.125,13.625 -13.625,13.625Z" style="fill:#cce6ff;fill-rule:nonzero;"/><path d="M6995.583,2686.587l-612.5,0c-7.5,0 -13.625,-6.1 -13.625,-13.629c0,-7.525 6.125,-13.625 13.625,-13.625l612.5,0c7.5,0 13.625,6.1 13.625,13.625c0,7.529 -6.125,13.629 -13.625,13.629Z" style="fill:#cce6ff;fill-rule:nonzero;"/><path d="M6995.583,2748.916l-612.5,0c-7.5,0 -13.625,-6.1 -13.625,-13.625c0,-7.529 6.125,-13.629 13.625,-13.629l612.5,0c7.5,0 13.625,6.1 13.625,13.629c0,7.525 -6.125,13.625 -13.625,13.625Z" style="fill:#cce6ff;fill-rule:nonzero;"/><path d="M6995.583,2811.249l-612.5,0c-7.5,0 -13.625,-6.104 -13.625,-13.629c0,-7.525 6.125,-13.625 13.625,-13.625l612.5,0c7.5,0 13.625,6.1 13.625,13.625c0,7.525 -6.125,13.629 -13.625,13.629Z" style="fill:#cce6ff;fill-rule:nonzero;"/><path d="M6995.583,2873.578l-612.5,0c-7.5,0 -13.625,-6.1 -13.625,-13.625c0,-7.529 6.125,-13.629 13.625,-13.629l612.5,0c7.5,0 13.625,6.1 13.625,13.629c0,7.525 -6.125,13.625 -13.625,13.625Z" style="fill:#cce6ff;fill-rule:nonzero;"/><path d="M6995.583,2935.912l-612.5,0c-7.5,0 -13.625,-6.105 -13.625,-13.629c0,-7.525 6.125,-13.629 13.625,-13.629l612.5,0c7.5,0 13.625,6.104 13.625,13.629c0,7.525 -6.125,13.629 -13.625,13.629Z" style="fill:#cce6ff;fill-rule:nonzero;"/><path d="M6995.583,2998.241l-612.5,0c-7.5,0 -13.625,-6.1 -13.625,-13.625c0,-7.529 6.125,-13.629 13.625,-13.629l612.5,0c7.5,0 13.625,6.1 13.625,13.629c0,7.525 -6.125,13.625 -13.625,13.625Z" style="fill:#cce6ff;fill-rule:nonzero;"/><path d="M6995.583,3060.574l-612.5,0c-7.5,0 -13.625,-6.104 -13.625,-13.629c0,-7.525 6.125,-13.629 13.625,-13.629l612.5,0c7.5,0 13.625,6.104 13.625,13.629c0,7.525 -6.125,13.629 -13.625,13.629Z" style="fill:#cce6ff;fill-rule:nonzero;"/><path d="M6995.583,3122.903l-612.5,0c-7.5,0 -13.625,-6.1 -13.625,-13.629c0,-7.525 6.125,-13.625 13.625,-13.625l612.5,0c7.5,0 13.625,6.1 13.625,13.625c0,7.529 -6.125,13.629 -13.625,13.629Z" style="fill:#cce6ff;fill-rule:nonzero;"/><path d="M6995.583,3185.232l-612.5,0c-7.5,0 -13.625,-6.1 -13.625,-13.625c0,-7.525 6.125,-13.629 13.625,-13.629l612.5,0c7.5,0 13.625,6.104 13.625,13.629c0,7.525 -6.125,13.625 -13.625,13.625Z" style="fill:#cce6ff;fill-rule:nonzero;"/><path d="M6995.583,3247.566l-612.5,0c-7.5,0 -13.625,-6.1 -13.625,-13.629c0,-7.525 6.125,-13.625 13.625,-13.625l612.5,0c7.5,0 13.625,6.1 13.625,13.625c0,7.529 -6.125,13.629 -13.625,13.629Z" style="fill:#cce6ff;fill-rule:nonzero;"/><path d="M6995.583,3309.895l-612.5,0c-7.5,0 -13.625,-6.1 -13.625,-13.625c0,-7.529 6.125,-13.629 13.625,-13.629l612.5,0c7.5,0 13.625,6.1 13.625,13.629c0,7.525 -6.125,13.625 -13.625,13.625Z" style="fill:#cce6ff;fill-rule:nonzero;"/><path d="M6995.583,3372.228l-612.5,0c-7.5,0 -13.625,-6.104 -13.625,-13.629c0,-7.525 6.125,-13.625 13.625,-13.625l612.5,0c7.5,0 13.625,6.1 13.625,13.625c0,7.525 -6.125,13.629 -13.625,13.629Z" style="fill:#cce6ff;fill-rule:nonzero;"/><path d="M6995.583,3434.557l-612.5,0c-7.5,0 -13.625,-6.1 -13.625,-13.625c0,-7.529 6.125,-13.629 13.625,-13.629l612.5,0c7.5,0 13.625,6.1 13.625,13.629c0,7.525 -6.125,13.625 -13.625,13.625Z" style="fill:#cce6ff;fill-rule:nonzero;"/><path d="M6995.583,3492.774l-612.5,0c-7.5,0 -13.625,-6.1 -13.625,-13.629c0,-7.525 6.125,-13.625 13.625,-13.625l612.5,0c7.5,0 13.625,6.1 13.625,13.625c0,7.529 -6.125,13.629 -13.625,13.629Z" style="fill:#cce6ff;fill-rule:nonzero;"/><path d="M6995.583,3555.103l-612.5,0c-7.5,0 -13.625,-6.1 -13.625,-13.625c0,-7.525 6.125,-13.629 13.625,-13.629l612.5,0c7.5,0 13.625,6.104 13.625,13.629c0,7.525 -6.125,13.625 -13.625,13.625Z" style="fill:#cce6ff;fill-rule:nonzero;"/><path d="M6995.583,3617.42l-612.5,0c-7.5,0 -13.625,-6.083 -13.625,-13.625c0,-7.5 6.125,-13.625 13.625,-13.625l612.5,0c7.5,0 13.625,6.125 13.625,13.625c0,7.542 -6.125,13.625 -13.625,13.625Z" style="fill:#cce6ff;fill-rule:nonzero;"/><path d="M6995.583,3679.753l-612.5,0c-7.5,0 -13.625,-6.079 -13.625,-13.625c0,-7.496 6.125,-13.625 13.625,-13.625l612.5,0c7.5,0 13.625,6.129 13.625,13.625c0,7.546 -6.125,13.625 -13.625,13.625Z" style="fill:#cce6ff;fill-rule:nonzero;"/><path d="M6995.583,3742.087l-612.5,0c-7.5,0 -13.625,-6.083 -13.625,-13.625c0,-7.5 6.125,-13.621 13.625,-13.621l612.5,0c7.5,0 13.625,6.121 13.625,13.621c0,7.542 -6.125,13.625 -13.625,13.625Z" style="fill:#cce6ff;fill-rule:nonzero;"/><path d="M7555,2876.953l-416.333,0c-6.459,0 -11.667,-5.233 -11.667,-11.688l0,-384.654c0,-6.45 5.208,-11.684 11.667,-11.684l416.333,0c6.459,0 11.709,5.233 11.709,11.684l0,384.654c0,6.454 -5.25,11.688 -11.709,11.688Z" style="fill:#cce6ff;fill-rule:nonzero;"/><path d="M6993.416,2358.412l-608.208,0c-8.708,0 -15.75,-7.059 -15.75,-15.767l0,-930.687c0,-8.708 7.042,-15.767 15.75,-15.767l608.208,0c8.709,0 15.792,7.059 15.792,15.767l0,930.687c0,8.708 -7.083,15.767 -15.792,15.767Z" style="fill:#cce6ff;fill-rule:nonzero;"/><path d="M6939.542,1735.104l-500.417,0c-5.25,0 -9.5,-4.263 -9.5,-9.517l0,-259.904c0,-5.259 4.25,-9.517 9.5,-9.517l500.417,0c5.25,0 9.5,4.258 9.5,9.517l0,259.904c0,5.254 -4.25,9.517 -9.5,9.517Z" style="fill:#f4f7fd;fill-rule:nonzero;"/><path d="M6939.542,2047.937l-500.417,0c-5.25,0 -9.5,-4.263 -9.5,-9.517l0,-259.904c0,-5.258 4.25,-9.517 9.5,-9.517l500.417,0c5.25,0 9.5,4.259 9.5,9.517l0,259.904c0,5.254 -4.25,9.517 -9.5,9.517Z" style="fill:#f4f7fd;fill-rule:nonzero;"/><path d="M6665.833,2313.399l-227.958,0c-4.583,0 -8.25,-3.696 -8.25,-8.254l0,-215.054c0,-4.562 3.667,-8.258 8.25,-8.258l227.958,0c4.584,0 8.292,3.696 8.292,8.258l0,215.054c0,4.558 -3.708,8.254 -8.292,8.254Z" style="fill:#f4f7fd;fill-rule:nonzero;"/><path d="M6940.667,2313.399l-233.709,0c-4.625,0 -8.375,-3.741 -8.375,-8.354l0,-214.854c0,-4.617 3.75,-8.358 8.375,-8.358l233.709,0c4.625,0 8.375,3.741 8.375,8.358l0,214.854c0,4.613 -3.75,8.354 -8.375,8.354Z" style="fill:#f4f7fd;fill-rule:nonzero;"/><path d="M5975.375,3817.837l-1318.375,0c-28.375,0 -51.333,-23 -51.333,-51.333l0,-2407.367c0,-28.358 22.958,-51.346 51.333,-51.346l1318.375,0c28.375,0 51.333,22.987 51.333,51.346l0,2407.367c0,28.333 -22.958,51.333 -51.333,51.333Z" style="fill:#f4f7fd;fill-rule:nonzero;"/><path d="M5254.667,1983.491l-512.709,0c-13.083,0 -23.666,-10.592 -23.666,-23.658l0,-512.729c0,-13.062 10.583,-23.654 23.666,-23.654l512.709,0c13.083,0 23.666,10.592 23.666,23.654l0,512.729c0,13.067 -10.583,23.658 -23.666,23.658Z" style="fill:#cce6ff;fill-rule:nonzero;"/><path d="M5916.833,1457.474l-397.458,0c-6.833,0 -12.334,-5.533 -12.334,-12.358l0,-9.312c0,-6.825 5.5,-12.354 12.334,-12.354l397.458,0c6.792,0 12.334,5.529 12.334,12.354l0,9.312c0,6.825 -5.542,12.358 -12.334,12.358Z" style="fill:#cce6ff;fill-rule:nonzero;"/><path d="M5916.833,1516.824l-397.458,0c-6.833,0 -12.334,-5.533 -12.334,-12.358l0,-9.308c0,-6.825 5.5,-12.359 12.334,-12.359l397.458,0c6.792,0 12.334,5.533 12.334,12.359l0,9.308c0,6.825 -5.542,12.358 -12.334,12.358Z" style="fill:#cce6ff;fill-rule:nonzero;"/><path d="M5916.833,1576.174l-397.458,0c-6.833,0 -12.334,-5.533 -12.334,-12.358l0,-9.308c0,-6.825 5.5,-12.359 12.334,-12.359l397.458,0c6.792,0 12.334,5.533 12.334,12.359l0,9.308c0,6.825 -5.542,12.358 -12.334,12.358Z" style="fill:#cce6ff;fill-rule:nonzero;"/><path d="M5916.833,1635.524l-397.458,0c-6.833,0 -12.334,-5.533 -12.334,-12.359l0,-9.308c0,-6.825 5.5,-12.359 12.334,-12.359l397.458,0c6.792,0 12.334,5.533 12.334,12.359l0,9.308c0,6.825 -5.542,12.359 -12.334,12.359Z" style="fill:#cce6ff;fill-rule:nonzero;"/><path d="M5916.833,1694.874l-397.458,0c-6.833,0 -12.334,-5.529 -12.334,-12.355l0,-9.312c0,-6.825 5.5,-12.358 12.334,-12.358l397.458,0c6.792,0 12.334,5.533 12.334,12.358l0,9.312c0,6.825 -5.542,12.355 -12.334,12.355Z" style="fill:#cce6ff;fill-rule:nonzero;"/><path d="M5916.833,1754.224l-397.458,0c-6.833,0 -12.334,-5.529 -12.334,-12.355l0,-9.312c0,-6.825 5.5,-12.358 12.334,-12.358l397.458,0c6.792,0 12.334,5.533 12.334,12.358l0,9.312c0,6.825 -5.542,12.355 -12.334,12.355Z" style="fill:#cce6ff;fill-rule:nonzero;"/><path d="M5916.833,1813.579l-397.458,0c-6.833,0 -12.334,-5.533 -12.334,-12.359l0,-9.312c0,-6.825 5.5,-12.354 12.334,-12.354l397.458,0c6.792,0 12.334,5.529 12.334,12.354l0,9.312c0,6.825 -5.542,12.359 -12.334,12.359Z" style="fill:#cce6ff;fill-rule:nonzero;"/><path d="M5916.833,1872.929l-397.458,0c-6.833,0 -12.334,-5.533 -12.334,-12.359l0,-9.308c0,-6.825 5.5,-12.358 12.334,-12.358l397.458,0c6.792,0 12.334,5.533 12.334,12.358l0,9.308c0,6.825 -5.542,12.359 -12.334,12.359Z" style="fill:#cce6ff;fill-rule:nonzero;"/><path d="M5916.833,1932.278l-397.458,0c-6.833,0 -12.334,-5.533 -12.334,-12.358l0,-9.308c0,-6.825 5.5,-12.359 12.334,-12.359l397.458,0c6.792,0 12.334,5.533 12.334,12.359l0,9.308c0,6.825 -5.542,12.358 -12.334,12.358Z" style="fill:#cce6ff;fill-rule:nonzero;"/><path d="M5916.833,1991.628l-397.458,0c-6.833,0 -12.334,-5.533 -12.334,-12.358l0,-9.308c0,-6.825 5.5,-12.359 12.334,-12.359l397.458,0c6.792,0 12.334,5.533 12.334,12.359l0,9.308c0,6.825 -5.542,12.358 -12.334,12.358Z" style="fill:#cce6ff;fill-rule:nonzero;"/><path d="M5414.958,1478.274c0,16.387 -13.291,29.675 -29.708,29.675c-16.375,0 -29.667,-13.287 -29.667,-29.675c0,-16.391 13.292,-29.675 29.667,-29.675c16.417,0 29.708,13.284 29.708,29.675Z" style="fill:#cce6ff;fill-rule:nonzero;"/><path d="M5414.958,1711.608c0,16.387 -13.291,29.675 -29.708,29.675c-16.375,0 -29.667,-13.287 -29.667,-29.675c0,-16.387 13.292,-29.675 29.667,-29.675c16.417,0 29.708,13.288 29.708,29.675Z" style="fill:#cce6ff;fill-rule:nonzero;"/><path d="M5414.958,1944.941c0,16.391 -13.291,29.675 -29.708,29.675c-16.375,0 -29.667,-13.283 -29.667,-29.675c0,-16.387 13.292,-29.675 29.667,-29.675c16.417,0 29.708,13.288 29.708,29.675Z" style="fill:#cce6ff;fill-rule:nonzero;"/><rect x="4718.292" y="2074.899" width="1210.875" height="69.267" style="fill:#cce6ff;fill-rule:nonzero;"/><rect x="4718.292" y="2195.008" width="1210.875" height="69.263" style="fill:#cce6ff;fill-rule:nonzero;"/><rect x="4718.292" y="2315.116" width="637.291" height="69.262" style="fill:#cce6ff;fill-rule:nonzero;"/><path d="M5919.958,2514.949l-1192.458,0c-5.083,0 -9.208,-4.125 -9.208,-9.213l0,-22.687c0,-5.092 4.125,-9.217 9.208,-9.217l1192.458,0c5.084,0 9.209,4.125 9.209,9.217l0,22.687c0,5.088 -4.125,9.213 -9.209,9.213Z" style="fill:#cce6ff;fill-rule:nonzero;"/><path d="M5919.958,2599.133l-1192.458,0c-5.083,0 -9.208,-4.125 -9.208,-9.217l0,-22.687c0,-5.088 4.125,-9.213 9.208,-9.213l1192.458,0c5.084,0 9.209,4.125 9.209,9.213l0,22.687c0,5.092 -4.125,9.217 -9.209,9.217Z" style="fill:#cce6ff;fill-rule:nonzero;"/><path d="M5919.958,2683.312l-1192.458,0c-5.083,0 -9.208,-4.125 -9.208,-9.213l0,-22.687c0,-5.087 4.125,-9.212 9.208,-9.212l1192.458,0c5.084,0 9.209,4.125 9.209,9.212l0,22.687c0,5.088 -4.125,9.213 -9.209,9.213Z" style="fill:#cce6ff;fill-rule:nonzero;"/><path d="M5919.958,2767.495l-1192.458,0c-5.083,0 -9.208,-4.125 -9.208,-9.212l0,-22.688c0,-5.091 4.125,-9.217 9.208,-9.217l1192.458,0c5.084,0 9.209,4.125 9.209,9.217l0,22.688c0,5.087 -4.125,9.212 -9.209,9.212Z" style="fill:#cce6ff;fill-rule:nonzero;"/><path d="M5919.958,2851.678l-1192.458,0c-5.083,0 -9.208,-4.125 -9.208,-9.216l0,-22.684c0,-5.091 4.125,-9.216 9.208,-9.216l1192.458,0c5.084,0 9.209,4.125 9.209,9.216l0,22.684c0,5.091 -4.125,9.216 -9.209,9.216Z" style="fill:#cce6ff;fill-rule:nonzero;"/><path d="M5919.958,2935.861l-1192.458,0c-5.083,0 -9.208,-4.125 -9.208,-9.216l0,-22.688c0,-5.091 4.125,-9.216 9.208,-9.216l1192.458,0c5.084,0 9.209,4.125 9.209,9.216l0,22.688c0,5.091 -4.125,9.216 -9.209,9.216Z" style="fill:#cce6ff;fill-rule:nonzero;"/><path d="M5324.417,3020.041l-599.583,0c-3.625,0 -6.541,-2.933 -6.541,-6.554l0,-28.008c0,-3.617 2.916,-6.554 6.541,-6.554l599.583,0c3.625,0 6.541,2.937 6.541,6.554l0,28.008c0,3.621 -2.916,6.554 -6.541,6.554Z" style="fill:#cce6ff;fill-rule:nonzero;"/><path d="M5043.667,3519.537l-292.333,0c-18.25,0 -33.041,-14.783 -33.041,-33.021l0,-311.2c0,-18.238 14.791,-33.021 33.041,-33.021l292.333,0c18.25,0 33,14.783 33,33.021l0,311.2c0,18.238 -14.75,33.021 -33,33.021Z" style="fill:#cce6ff;fill-rule:nonzero;"/><path d="M5469.917,3517.907l-292.333,0c-18.25,0 -33.042,-14.783 -33.042,-33.025l0,-311.196c0,-18.237 14.792,-33.025 33.042,-33.025l292.333,0c18.208,0 33,14.787 33,33.025l0,311.196c0,18.242 -14.791,33.025 -33,33.025Z" style="fill:#cce6ff;fill-rule:nonzero;"/><path d="M5896.167,3516.283l-292.375,0c-18.208,0 -33,-14.788 -33,-33.025l0,-311.2c0,-18.237 14.791,-33.025 33,-33.025l292.375,0c18.208,0 33,14.787 33,33.025l0,311.2c0,18.238 -14.792,33.025 -33,33.025Z" style="fill:#cce6ff;fill-rule:nonzero;"/><path d="M5923.75,3627.045l-1200.042,0c-3,0 -5.416,-2.416 -5.416,-5.417l0,-24.875c0,-3 2.416,-5.417 5.416,-5.417l1200.042,0c3,0 5.417,2.416 5.417,5.417l0,24.875c0,3 -2.417,5.417 -5.417,5.417Z" style="fill:#cce6ff;fill-rule:nonzero;"/><path d="M5923.75,3693.67l-1200.042,0c-3,0 -5.416,-2.417 -5.416,-5.413l0,-24.837c0,-3 2.416,-5.417 5.416,-5.417l1200.042,0c3,0 5.417,2.416 5.417,5.417l0,24.837c0,2.996 -2.417,5.413 -5.417,5.413Z" style="fill:#cce6ff;fill-rule:nonzero;"/><path d="M5438.375,3760.337l-715.875,0c-2.334,0 -4.208,-1.875 -4.208,-4.208l0,-27.292c0,-2.334 1.875,-4.208 4.208,-4.208l715.875,0c2.292,0 4.167,1.875 4.167,4.208l0,27.292c0,2.333 -1.875,4.208 -4.167,4.208Z" style="fill:#cce6ff;fill-rule:nonzero;"/><path d="M3190.75,2349.378l-943.171,0c-26.208,0 -47.45,-21.246 -47.45,-47.454l0,-618.008c0,-26.208 21.242,-47.454 47.45,-47.454l943.171,0c26.208,0 47.454,21.246 47.454,47.454l0,618.008c0,26.208 -21.246,47.454 -47.454,47.454Z" style="fill:#3c94f8;fill-rule:nonzero;"/><path d="M2467.463,2055.282c0,24.971 -3.696,44.371 -11.088,58.196c-13.708,25.242 -39.788,37.859 -78.225,37.859c-22.179,0 -41.129,-6.008 -56.854,-18.021c-15.725,-12.012 -23.592,-33.396 -23.592,-64.137l0,-21.146l37.658,0l0,21.146c0,16.108 3.596,28.225 10.796,36.346c7.2,8.125 18.4,12.183 33.604,12.183c21.392,0 35.383,-7.313 41.979,-21.95c4.033,-8.991 6.054,-25.975 6.054,-50.946l0,-197.146l39.667,0l0,207.617Z" style="fill:#102a54;fill-rule:nonzero;"/><path d="M2736.6,2078.508c15.775,-25.325 23.662,-54.45 23.662,-87.367c0,-34.8 -9.096,-62.813 -27.288,-84.042c-18.192,-21.229 -43.058,-31.846 -74.608,-31.846c-30.608,0 -55.579,10.516 -74.913,31.541c-19.329,21.029 -28.996,52.033 -28.996,93.012c0,32.788 8.288,60.429 24.871,82.934c16.579,22.508 43.463,33.758 80.65,33.758c35.308,0 60.846,-12.658 76.621,-37.991Zm35.342,-188.554c19.6,26.179 29.4,59.675 29.4,100.487c0,44.171 -11.208,80.884 -33.629,110.15c-26.313,34.371 -63.833,51.554 -112.567,51.554c-45.513,0 -81.288,-15.033 -107.333,-45.109c-23.229,-29 -34.838,-65.65 -34.838,-109.95c0,-40.009 9.933,-74.242 29.804,-102.704c25.504,-36.512 63.229,-54.771 113.171,-54.771c52.221,0 90.887,16.784 115.992,50.342Z" style="fill:#102a54;fill-rule:nonzero;"/><path d="M2974.538,2109.249c24.804,0 42.488,-7.113 53.058,-21.346c6.637,-8.992 9.962,-19.867 9.962,-32.621c0,-21.479 -9.696,-36.112 -29.075,-43.9c-10.3,-4.158 -23.917,-6.241 -40.858,-6.241l-80.292,0l0,104.108l87.204,0Zm-13.546,-136.529c17.092,0 30.387,-2.35 39.883,-7.05c14.921,-7.379 22.383,-20.671 22.383,-39.871c0,-19.333 -7.933,-32.354 -23.804,-39.067c-8.954,-3.759 -22.254,-5.642 -39.887,-5.642l-72.233,0l0,91.629l73.658,0Zm-112.929,-125.054l127.904,0c34.863,0 59.662,10.338 74.392,31.012c8.646,12.217 12.975,26.313 12.975,42.288c0,18.663 -5.304,33.967 -15.908,45.913c-5.508,6.313 -13.429,12.083 -23.763,17.317c15.171,5.775 26.513,12.287 34.033,19.533c13.287,12.892 19.933,30.679 19.933,53.367c0,19.062 -6.012,36.316 -18.029,51.754c-17.967,23.092 -46.538,34.633 -85.708,34.633l-125.829,0l0,-295.817Z" style="fill:#102a54;fill-rule:nonzero;"/><path d="M2220.104,1617.191c-22.717,0 -41.2,18.483 -41.2,41.2l0,618.008c0,22.721 18.483,41.204 41.2,41.204l734.65,0l147.579,192.7c2.875,3.708 6.75,2.758 7.833,2.383c1.125,-0.379 4.792,-1.984 4.792,-6.654l0,-188.429l48.333,0c22.709,0 41.208,-18.483 41.208,-41.204l0,-618.008c0,-22.717 -18.5,-41.2 -41.208,-41.2l-943.187,0Zm887.688,908.404c-5.917,0 -11.542,-2.721 -15.375,-7.691l-143.837,-187.8l-728.475,0c-29.612,0 -53.7,-24.092 -53.7,-53.704l0,-618.008c0,-29.609 24.088,-53.7 53.7,-53.7l943.187,0c29.579,0 53.708,24.092 53.708,53.7l0,618.008c0,29.613 -24.129,53.704 -53.708,53.704l-35.833,0l0,175.929c0,8.504 -5.208,15.762 -13.25,18.492c-2.125,0.721 -4.292,1.071 -6.417,1.071Z" style="fill:#102a54;fill-rule:nonzero;"/><path d="M5382.792,1095.312l-943.167,0c-26.208,0 -47.458,-21.246 -47.458,-47.45l0,-618.012c0,-26.204 21.25,-47.45 47.458,-47.45l943.167,0c26.208,0 47.458,21.246 47.458,47.45l0,618.012c0,26.204 -21.25,47.45 -47.458,47.45Z" style="fill:#3c94f8;fill-rule:nonzero;"/><path d="M4659.5,801.216c0,24.975 -3.667,44.375 -11.083,58.2c-13.708,25.242 -39.792,37.858 -78.208,37.858c-22.166,0 -41.125,-6.008 -56.875,-18.025c-15.708,-12.013 -23.583,-33.392 -23.583,-64.138l0,-21.142l37.667,0l0,21.142c0,16.113 3.583,28.229 10.792,36.35c7.209,8.125 18.417,12.184 33.625,12.184c21.375,0 35.375,-7.317 41.958,-21.95c4.042,-8.991 6.042,-25.979 6.042,-50.95l0,-197.146l39.667,0l0,207.617Z" style="fill:#102a54;fill-rule:nonzero;"/><path d="M4928.667,824.445c15.75,-25.325 23.666,-54.45 23.666,-87.366c0,-34.8 -9.125,-62.813 -27.291,-84.042c-18.208,-21.234 -43.084,-31.846 -74.625,-31.846c-30.583,0 -55.583,10.513 -74.917,31.542c-19.333,21.029 -29,52.029 -29,93.008c0,32.788 8.292,60.433 24.875,82.937c16.583,22.504 43.458,33.759 80.667,33.759c35.292,0 60.833,-12.662 76.625,-37.992Zm35.333,-188.554c19.583,26.179 29.416,59.675 29.416,100.483c0,44.171 -11.208,80.887 -33.666,110.154c-26.291,34.367 -63.833,51.55 -112.542,51.55c-45.5,0 -81.292,-15.033 -107.333,-45.108c-23.25,-28.996 -34.833,-65.646 -34.833,-109.95c0,-40.004 9.917,-74.238 29.792,-102.7c25.5,-36.517 63.25,-54.775 113.167,-54.775c52.208,0 90.875,16.783 116,50.346Z" style="fill:#102a54;fill-rule:nonzero;"/><path d="M5166.583,855.187c24.791,0 42.5,-7.113 53.083,-21.346c6.625,-8.991 9.958,-19.866 9.958,-32.625c0,-21.475 -9.708,-36.108 -29.083,-43.896c-10.292,-4.163 -23.917,-6.246 -40.875,-6.246l-80.292,0l0,104.113l87.209,0Zm-13.542,-136.533c17.083,0 30.375,-2.346 39.875,-7.046c14.917,-7.383 22.417,-20.675 22.417,-39.875c0,-19.329 -7.958,-32.35 -23.833,-39.067c-8.958,-3.754 -22.25,-5.638 -39.875,-5.638l-72.25,0l0,91.625l73.667,0Zm-112.917,-125.054l127.916,0c34.833,0 59.625,10.342 74.375,31.012c8.625,12.217 12.958,26.317 12.958,42.288c0,18.663 -5.291,33.967 -15.875,45.917c-5.541,6.312 -13.458,12.083 -23.792,17.316c15.166,5.775 26.542,12.283 34.041,19.534c13.292,12.887 19.917,30.679 19.917,53.363c0,19.066 -6,36.316 -18,51.754c-18,23.092 -46.542,34.637 -85.709,34.637l-125.833,0l0,-295.821Z" style="fill:#102a54;fill-rule:nonzero;"/><path d="M4412.166,363.128c-22.708,0 -41.208,18.483 -41.208,41.2l0,618.008c0,22.721 18.5,41.204 41.208,41.204l734.625,0l147.625,192.7c2.834,3.712 6.709,2.758 7.833,2.383c1.125,-0.383 4.75,-1.983 4.75,-6.654l0,-188.429l48.334,0c22.708,0 41.208,-18.483 41.208,-41.204l0,-618.008c0,-22.716 -18.5,-41.2 -41.208,-41.2l-943.167,0Zm887.667,908.4c-5.917,0 -11.542,-2.717 -15.333,-7.687l-143.875,-187.8l-728.459,0c-29.625,0 -53.708,-24.092 -53.708,-53.704l0,-618.008c0,-29.608 24.083,-53.7 53.708,-53.7l943.167,0c29.625,0 53.708,24.092 53.708,53.7l0,618.008c0,29.613 -24.083,53.704 -53.708,53.704l-35.834,0l0,175.929c0,8.504 -5.208,15.758 -13.25,18.492c-2.125,0.717 -4.292,1.067 -6.417,1.067Z" style="fill:#102a54;fill-rule:nonzero;"/><path d="M7425.542,1489.512l943.208,0c26.208,0 47.416,-21.246 47.416,-47.454l0,-618.008c0,-26.208 -21.208,-47.45 -47.416,-47.45l-943.208,0c-26.208,0 -47.458,21.241 -47.458,47.45l0,618.008c0,26.208 21.25,47.454 47.458,47.454Z" style="fill:#3c94f8;fill-rule:nonzero;"/><path d="M7708.459,1195.416c0,24.97 -3.709,44.375 -11.126,58.2c-13.707,25.238 -39.749,37.858 -78.207,37.858c-22.167,0 -41.125,-6.012 -56.834,-18.025c-15.75,-12.013 -23.625,-33.392 -23.625,-64.138l0,-21.142l37.667,0l0,21.142c0,16.113 3.583,28.229 10.791,36.35c7.204,8.121 18.417,12.183 33.625,12.183c21.37,0 35.375,-7.317 41.959,-21.95c4.042,-8.996 6.083,-25.979 6.083,-50.95l0,-197.146l39.667,0l0,207.617Z" style="fill:#102a54;fill-rule:nonzero;"/><path d="M7977.583,1218.645c15.75,-25.325 23.667,-54.45 23.667,-87.367c0,-34.804 -9.126,-62.816 -27.292,-84.046c-18.209,-21.229 -43.084,-31.846 -74.625,-31.846c-30.584,0 -55.584,10.517 -74.918,31.546c-19.333,21.025 -29,52.029 -29,93.008c0,32.788 8.292,60.433 24.875,82.938c16.583,22.504 43.459,33.759 80.667,33.759c35.292,0 60.834,-12.663 76.625,-37.992Zm35.333,-188.554c19.584,26.175 29.417,59.675 29.417,100.483c0,44.171 -11.208,80.887 -33.624,110.154c-26.334,34.366 -63.834,51.55 -112.583,51.55c-45.501,0 -81.292,-15.033 -107.333,-45.108c-23.25,-28.996 -34.834,-65.646 -34.834,-109.95c0,-40.004 9.917,-74.238 29.791,-102.7c25.5,-36.517 63.251,-54.775 113.167,-54.775c52.25,0 90.917,16.783 115.999,50.346Z" style="fill:#102a54;fill-rule:nonzero;"/><path d="M8215.5,1249.387c24.833,0 42.5,-7.117 53.083,-21.346c6.625,-8.991 9.958,-19.866 9.958,-32.625c0,-21.475 -9.708,-36.112 -29.083,-43.9c-10.292,-4.159 -23.917,-6.242 -40.874,-6.242l-80.292,0l0,104.113l87.208,0Zm-13.542,-136.534c17.084,0 30.417,-2.346 39.875,-7.045c14.958,-7.384 22.416,-20.675 22.416,-39.875c0,-19.333 -7.958,-32.35 -23.833,-39.067c-8.958,-3.758 -22.25,-5.638 -39.875,-5.638l-72.249,0l0,91.625l73.666,0Zm-112.917,-125.054l127.917,0c34.833,0 59.666,10.341 74.374,31.012c8.667,12.217 12.959,26.312 12.959,42.287c0,18.663 -5.292,33.967 -15.875,45.917c-5.542,6.308 -13.458,12.079 -23.792,17.317c15.166,5.775 26.541,12.283 34.041,19.533c13.291,12.888 19.958,30.679 19.958,53.363c0,19.067 -6.041,36.317 -18.042,51.754c-17.958,23.092 -46.541,34.637 -85.708,34.637l-125.834,0l0,-295.821Z" style="fill:#102a54;fill-rule:nonzero;"/><path d="M7453.042,757.324c-22.75,0 -41.208,18.483 -41.208,41.204l0,618.008c0,22.717 18.459,41.2 41.208,41.2l48.334,0l0,188.433c0,4.671 3.624,6.271 4.75,6.65c1.125,0.384 5,1.333 7.829,-2.379l147.588,-192.704l734.667,0c22.708,0 41.208,-18.483 41.208,-41.2l0,-618.008c0,-22.721 -18.5,-41.204 -41.208,-41.204l-943.167,0Zm55.5,908.405c-2.125,0 -4.292,-0.35 -6.417,-1.071c-8.083,-2.729 -13.25,-9.987 -13.25,-18.488l0,-175.933l-35.834,0c-29.625,0 -53.708,-24.087 -53.708,-53.7l0,-618.008c0,-29.612 24.083,-53.704 53.708,-53.704l943.167,0c29.624,0 53.708,24.092 53.708,53.704l0,618.008c0,29.613 -24.083,53.7 -53.708,53.7l-728.459,0l-143.875,187.804c-3.791,4.971 -9.417,7.688 -15.333,7.688Z" style="fill:#102a54;fill-rule:nonzero;"/><path d="M4287.708,4735.295c-227.75,-131.792 -390.542,-344.333 -458.416,-598.583c-67.833,-254.167 -32.667,-519.583 99.125,-747.338c131.75,-227.737 344.333,-390.525 598.542,-458.387c254.208,-67.858 519.625,-32.662 747.375,99.108c227.708,131.767 390.5,344.333 458.375,598.533c67.833,254.208 32.667,519.625 -99.125,747.375c-131.75,227.75 -344.333,390.542 -598.542,458.375c-254.208,67.875 -519.625,32.667 -747.333,-99.083Zm1479.333,-282.083c152.375,-263.375 193.083,-570.333 114.625,-864.333c-78.5,-293.996 -266.75,-539.833 -530.125,-692.225c-263.375,-152.387 -570.333,-193.096 -864.334,-114.617c-294,78.48 -539.833,266.746 -692.25,530.125c-152.375,263.383 -193.083,570.342 -114.583,864.342c64.334,241.125 202.625,449.833 395.584,601.167c-19.292,1.083 -37.625,11.542 -48.042,29.458l-821.583,1420c-16.417,28.333 -6.713,64.583 21.625,81l224.291,129.75c28.334,16.417 64.583,6.75 80.959,-21.583l821.625,-1420c10.375,-17.958 10.292,-39.083 1.625,-56.333c227.375,91.875 477.208,107.75 718.375,43.375c293.959,-78.5 539.792,-266.75 692.208,-530.125Z" style="fill:#102a54;fill-rule:nonzero;"/><path d="M5599.917,4397.462c-267.375,462.083 -858.708,619.958 -1320.75,352.583c-462.083,-267.375 -619.958,-858.667 -352.583,-1320.759c267.375,-462.071 858.666,-619.92 1320.75,-352.562c462.083,267.358 619.917,858.696 352.583,1320.738Z" style="fill:#fff;fill-rule:nonzero;"/><path d="M4762.333,4880.17c-84.25,0 -169.041,-11.042 -252.292,-33.666l1072.667,-420.417c-182.25,291.625 -497.084,454.083 -820.375,454.083Zm-571.542,-187.833c-1.666,-1.208 -3.291,-2.417 -4.916,-3.625c-34.958,-33.917 -67.25,-70.292 -96.667,-108.917l1640.542,-643.167c-1.125,48.458 -5.875,97 -14.417,145.25l-1524.542,610.458Zm-282.75,-512.959c-12.083,-58.958 -18.708,-118.291 -20,-177.416l1661.375,-651.35c-77.583,-108.554 -179.042,-202.708 -302.083,-273.888c-11.25,-6.512 -22.625,-12.791 -34,-18.8c11.375,6.008 22.75,12.287 34,18.8c309.542,179.109 482.583,503.613 482.667,837.238c-0.042,-147.292 -33.792,-292.833 -98.125,-424.854l-1723.834,690.271Zm135.792,-728.062c132.792,-207.825 335.583,-356.333 575.375,-420.354c84.583,-22.579 170.417,-33.75 255.667,-33.75c68.041,0 135.708,7.109 202.125,21.213l-1033.167,432.892Z" style="fill:#e0f0ff;fill-rule:nonzero;"/><g><clipPath id="_clip3"><path d="M5599.917,4397.462c-267.375,462.083 -858.708,619.958 -1320.75,352.583c-462.083,-267.375 -619.958,-858.667 -352.583,-1320.759c267.375,-462.071 858.666,-619.92 1320.75,-352.562c462.083,267.358 619.917,858.696 352.583,1320.738Z"/></clipPath><g clip-path="url(#_clip3)"><path d="M3888.042,4001.962c-3.792,-178.125 41.125,-354.458 132.625,-512.617c7.458,-12.883 15.167,-25.563 23.167,-38.029l1033.167,-432.892c46.125,9.8 91.708,22.987 136.333,39.5c11.375,6.008 22.75,12.287 34,18.8c123.042,71.179 224.5,165.334 302.083,273.888l-1661.375,651.35Z" style="fill:#b6d8fd;fill-rule:nonzero;"/><path d="M4089.208,4579.795c-76.833,-100.875 -133.916,-216.833 -167.625,-343.083c-5.083,-19.042 -9.625,-38.208 -13.542,-57.333l1723.834,-690.271c64.333,132.021 98.083,277.562 98.125,424.854c0.042,7.542 -0.083,15.125 -0.25,22.667l-1640.542,643.167Z" style="fill:#c2dffe;fill-rule:nonzero;"/><path d="M4510.041,4846.503c-79.042,-21.5 -156.625,-53.5 -230.875,-96.458c-30.833,-17.833 -60.292,-37.125 -88.375,-57.708l1524.542,-610.458c-2.042,11.458 -4.25,22.833 -6.708,34.25c-0.875,4.167 -1.833,8.333 -2.75,12.5c-2.625,11.375 -5.458,22.75 -8.458,34.042c-21.5,80.417 -53.834,159.333 -97.5,234.792c-5.625,9.708 -11.333,19.208 -17.208,28.625l-1072.667,420.417Z" style="fill:#cfe7fe;fill-rule:nonzero;"/></g></g><path d="M4201.958,5519.92c-40.75,-16.042 -81.5,-32.042 -122.333,-47.958l275.208,-475.667c10.375,-17.958 10.292,-39.083 1.625,-56.333c135.167,54.625 278.334,82.375 422.834,82.375c98.541,0 197.75,-12.917 295.541,-39c293.959,-78.5 539.792,-266.75 692.208,-530.125c53.416,-92.292 93.083,-189.958 118.75,-290.542l112.958,0c-21.75,135.833 -68.5,267.875 -139.458,390.5c-152.375,263.375 -398.209,451.667 -692.208,530.125c-97.792,26.125 -196.958,39.042 -295.542,39c-144.5,0 -287.666,-27.75 -422.833,-82.333c8.667,17.25 8.792,38.375 -1.583,56.292l-245.167,423.667Zm-142.125,-739.083c-24.458,-24.833 -47.709,-50.75 -69.667,-77.667c27.208,26.125 55.833,51.042 85.792,74.5c-5.5,0.333 -10.917,1.375 -16.125,3.167Z" style="fill:#dae9fc;fill-rule:nonzero;"/><path d="M3574.125,6545.837c-10.083,0 -20.292,-2.542 -29.625,-7.958l-224.291,-129.792c-22.584,-13.083 -33.333,-38.792 -28.416,-63.042l160.458,92.833c9.334,5.417 19.542,8 29.625,8c20.458,0 40.375,-10.625 51.333,-29.583l546.417,-944.333c40.833,15.917 81.583,31.917 122.333,47.958l-576.458,996.333c-11,19 -30.917,29.583 -51.375,29.583Z" style="fill:#cae0fb;fill-rule:nonzero;"/><path d="M5998.75,4162.67l-112.958,0c2.875,-11.292 5.583,-22.667 8.125,-34.042l109.792,0c-1.5,11.333 -3.125,22.75 -4.959,34.042Zm6.5,-46.542l-108.625,0c20.542,-97.833 28,-197.958 22.084,-298.292l56.667,0c8.792,0 17.083,-2.208 24.333,-6.125c15.625,101.625 17.375,203.834 5.542,304.417Zm-2208.709,-191.167c-1.583,-35.792 -1.25,-71.542 1.083,-107.125l3.5,0c-3.125,31.667 -4.667,63.333 -4.667,94.958c0,4.042 0.041,8.125 0.083,12.167Zm578.292,-896.796l0,-43.121c48.709,-21.905 99.542,-40.017 152.125,-54.058c26.125,-6.975 52.375,-12.863 78.708,-17.667l0,46.354c-79.417,13.171 -157,36.166 -230.833,68.492Z" style="fill:#b8dafe;fill-rule:nonzero;"/><path d="M6003.709,4128.628l-109.792,0c0.917,-4.167 1.834,-8.333 2.708,-12.5l108.625,0c-0.5,4.167 -1,8.333 -1.542,12.5Z" style="fill:#16396b;fill-rule:nonzero;"/><path d="M3801.125,3817.837l-3.5,0c5.75,-88.371 23.542,-175.667 53.083,-259.792c1.5,1 3.334,1.625 5.292,1.625l7.542,0c-4.333,10.958 -8.417,21.917 -12.334,32.958c-2.791,1.667 -4.667,4.667 -4.667,8.125c0,1.208 0.25,2.375 0.667,3.458c-23.75,70.125 -39,141.792 -46.083,213.625Zm70.083,-277.042l-14.25,0c8,-21.429 16.75,-42.654 26.25,-63.625l17.417,0c-10.625,20.987 -20.458,42.225 -29.417,63.625Zm39.208,-82.479l-18.417,0c5.125,-10.633 10.417,-21.2 15.875,-31.691l20.25,0c-0.5,0.875 -1.042,1.787 -1.542,2.662c-5.584,9.617 -10.958,19.304 -16.167,29.029Zm29,-50.546l-21.375,0c3.375,-6.158 6.833,-12.296 10.375,-18.396c2.583,-4.45 5.208,-8.891 7.833,-13.291l23.417,0c-6.917,10.4 -13.667,20.942 -20.25,31.687Zm33.167,-50.546l-24.75,0c13.75,-21.858 28.292,-43.088 43.541,-63.621l29.917,0c-17,20.383 -33.25,41.575 -48.709,63.621Zm64.834,-82.479l-31.667,0c8.375,-10.758 17,-21.325 25.791,-31.687l34.958,0c-9.875,10.3 -19.625,20.883 -29.083,31.687Zm47.708,-50.546l-37.125,0c9.666,-10.796 19.541,-21.358 29.625,-31.687l41.25,0c-11.458,10.258 -22.709,20.829 -33.75,31.687Zm55.5,-50.546l-44.042,0c23.167,-22.425 47.375,-43.65 72.584,-63.621l56.125,0c-29.208,19.542 -57.5,40.771 -84.666,63.621Zm114.042,-82.479l-60.875,0c14.791,-10.987 29.916,-21.554 45.375,-31.687l40.375,0c5.208,0 9.458,-4.221 9.458,-9.429c0,-5.204 -4.25,-9.425 -9.458,-9.425l-10.5,0c33.958,-20.596 69.292,-39.158 105.792,-55.587l0,43.121c-41.334,18.1 -81.541,39.158 -120.167,63.008Z" style="fill:#dae9fc;fill-rule:nonzero;"/><path d="M4279.542,3059.487l-40.375,0c9.833,-6.458 19.792,-12.75 29.875,-18.854l10.5,0c5.208,0 9.458,4.221 9.458,9.425c0,5.208 -4.25,9.429 -9.458,9.429Z" style="fill:#b8dafe;fill-rule:nonzero;"/><path d="M4225.292,3110.032l-56.125,0c8.125,-6.416 16.334,-12.704 24.625,-18.858l60.875,0c-9.917,6.109 -19.667,12.379 -29.375,18.858Z" style="fill:#b8dafe;fill-rule:nonzero;"/><path d="M4118.875,3192.512l-41.25,0c6.25,-6.379 12.583,-12.663 18.958,-18.858l44.042,0c-7.333,6.171 -14.583,12.45 -21.75,18.858Z" style="fill:#b8dafe;fill-rule:nonzero;"/><path d="M4066.5,3243.058l-34.958,0c5.417,-6.362 10.917,-12.646 16.459,-18.858l37.125,0c-6.292,6.196 -12.5,12.471 -18.625,18.858Z" style="fill:#b8dafe;fill-rule:nonzero;"/><path d="M4021.292,3293.603l-29.917,0c4.708,-6.35 9.5,-12.637 14.375,-18.858l31.667,0c-5.459,6.204 -10.833,12.488 -16.125,18.858Z" style="fill:#b8dafe;fill-rule:nonzero;"/><path d="M3959.667,3376.083l-23.417,0c3.792,-6.35 7.625,-12.612 11.583,-18.858l24.75,0c-4.375,6.204 -8.666,12.525 -12.917,18.858Z" style="fill:#b8dafe;fill-rule:nonzero;"/><path d="M3928.125,3426.624l-20.25,0c3.333,-6.321 6.708,-12.587 10.166,-18.854l21.375,0c-3.834,6.242 -7.583,12.496 -11.292,18.854Z" style="fill:#b8dafe;fill-rule:nonzero;"/><path d="M3900.625,3477.17l-17.417,0c2.875,-6.308 5.792,-12.596 8.792,-18.854l18.417,0c-3.334,6.271 -6.584,12.538 -9.792,18.854Z" style="fill:#b8dafe;fill-rule:nonzero;"/><path d="M3863.542,3559.67l-7.542,0c-1.958,0 -3.791,-0.625 -5.292,-1.625c2.042,-5.771 4.125,-11.513 6.25,-17.25l14.25,0c-2.625,6.267 -5.208,12.562 -7.667,18.875Z" style="fill:#b8dafe;fill-rule:nonzero;"/><path d="M3847.208,3604.212c-0.417,-1.083 -0.667,-2.25 -0.667,-3.458c0,-3.458 1.875,-6.458 4.667,-8.125c-1.333,3.833 -2.708,7.75 -4,11.583Z" style="fill:#b8dafe;fill-rule:nonzero;"/><path d="M5975.375,3817.837l-56.667,0c-2.458,-41.375 -7.167,-82.833 -14.208,-124.167l19.25,0c3,0 5.417,-2.417 5.417,-5.413l0,-24.837c0,-3 -2.417,-5.417 -5.417,-5.417l-25.875,0c-2.083,-10.334 -4.333,-20.667 -6.708,-30.959l32.583,0c3,0 5.417,-2.416 5.417,-5.417l0,-24.875c0,-3 -2.417,-5.417 -5.417,-5.417l-41.458,0c-0.209,-0.833 -0.417,-1.625 -0.625,-2.458c-6.583,-24.542 -13.875,-48.746 -21.958,-72.596l36.458,0c5.417,0 10.583,-1.321 15.083,-3.659c25.417,56.379 46.417,115.296 62.667,176.217c10.875,40.746 19.458,81.787 25.791,122.871c-7.25,3.917 -15.542,6.125 -24.333,6.125Zm-425,-551.083c-15.334,-14.45 -31.125,-28.412 -47.458,-41.908l0,-13c16.542,17.721 32.333,36.037 47.458,54.908Zm-121.083,-126.092l-44.833,0c-5.917,-3.583 -11.875,-7.121 -17.875,-10.592c-49.5,-28.634 -100.709,-52.7 -153.25,-72.146c-26.542,-13.987 -53.416,-26.587 -80.625,-37.884l123.833,0c5.959,3.288 11.875,6.638 17.792,10.055c55.667,32.216 107.458,69.262 154.959,110.567Zm-256.167,-161.738l-161.666,0c-81.625,-21.738 -164.708,-32.317 -247.292,-32.317c-53.292,0 -106.292,4.4 -158.5,13.067l0,-46.354c37.875,-6.917 75.917,-11.592 113.917,-14.046c-0.833,1.375 -1.291,2.975 -1.291,4.683l0,22.688c0,5.091 4.125,9.216 9.208,9.216l326.583,0c40.333,11.717 80.125,26.083 119.041,43.063Z" style="fill:#dae9fc;fill-rule:nonzero;"/><path d="M5054.083,2935.861l-326.583,0c-5.083,0 -9.208,-4.125 -9.208,-9.216l0,-22.688c0,-1.708 0.458,-3.308 1.291,-4.683c21,-1.359 42.042,-2.033 63.042,-2.033c91.875,0 183.125,12.971 271.458,38.621Z" style="fill:#b8dafe;fill-rule:nonzero;"/><path d="M5256.542,3020.041l-123.833,0c-39.834,-16.537 -80.375,-30.233 -121.25,-41.116l161.666,0c28.25,12.329 56.084,26.038 83.417,41.116Z" style="fill:#b8dafe;fill-rule:nonzero;"/><path d="M5502.917,3224.845c-37.042,-30.663 -76.625,-58.817 -118.458,-84.183l44.833,0c25.833,22.491 50.417,46.262 73.625,71.183l0,13Z" style="fill:#b8dafe;fill-rule:nonzero;"/><path d="M5896.167,3516.283l-36.458,0c-44.041,-130.321 -110.333,-249.829 -195.625,-354.221c103.958,99.821 187.666,218.391 247.166,350.562c-4.5,2.338 -9.666,3.659 -15.083,3.659Z" style="fill:#b8dafe;fill-rule:nonzero;"/><path d="M5923.75,3627.045l-32.583,0c-2.75,-11.917 -5.708,-23.833 -8.875,-35.708l41.458,0c3,0 5.417,2.416 5.417,5.417l0,24.875c0,3 -2.417,5.417 -5.417,5.417Z" style="fill:#b8dafe;fill-rule:nonzero;"/><path d="M5923.75,3693.67l-19.25,0c-2,-11.917 -4.208,-23.792 -6.625,-35.667l25.875,0c3,0 5.417,2.416 5.417,5.417l0,24.837c0,2.996 -2.417,5.413 -5.417,5.413Z" style="fill:#b8dafe;fill-rule:nonzero;"/><path d="M3481.875,6445.878c-10.084,0 -20.292,-2.583 -29.625,-8l-160.458,-92.833c1.25,-6.125 3.5,-12.208 6.791,-17.958l821.625,-1419.958c10.375,-17.958 28.75,-28.375 48,-29.5c-38.334,-30.042 -74.5,-62.375 -108.375,-96.792c5.208,-1.792 10.625,-2.833 16.125,-3.167c-29.959,-23.458 -58.584,-48.375 -85.792,-74.5c-100.875,-123.458 -175.209,-268.042 -217.542,-426.708c-78.5,-294 -37.791,-600.959 114.625,-864.325c152.375,-263.379 398.209,-451.646 692.208,-530.129c97.833,-26.117 197.042,-39.029 295.667,-39.029c197.75,0 392.916,51.967 568.667,153.65c80.833,46.775 154.625,102.358 220.292,165.433c85.292,104.391 151.583,223.9 195.625,354.221c8.084,23.85 15.375,48.054 21.958,72.596c0.209,0.833 0.417,1.625 0.625,2.458c3.167,11.875 6.125,23.792 8.875,35.708c2.375,10.292 4.625,20.625 6.708,30.959c2.416,11.875 4.625,23.75 6.625,35.667c7.042,41.333 11.75,82.792 14.208,124.167c5.916,100.333 -1.542,200.458 -22.084,298.292c-0.875,4.167 -1.791,8.333 -2.708,12.5c-2.542,11.375 -5.25,22.75 -8.125,34.042c-25.667,100.583 -65.334,198.25 -118.75,290.542c-152.416,263.375 -398.25,451.625 -692.208,530.125c-97.792,26.083 -197,39 -295.541,39c-144.5,0 -287.667,-27.75 -422.834,-82.375c8.667,17.25 8.75,38.375 -1.625,56.333l-275.208,475.667l-546.417,944.333c-10.958,18.958 -30.875,29.583 -51.333,29.583Zm704,-1757.167c57.708,56 122.708,105.25 194.083,146.542c151.958,87.917 320.708,132.833 491.708,132.833c85.25,0 171.084,-11.167 255.667,-33.75c254.208,-67.833 466.75,-230.625 598.542,-458.375c131.75,-227.708 166.959,-493.167 99.083,-747.334c-47.833,-179.237 -142.875,-337.771 -274.583,-461.875c-15.125,-18.871 -30.917,-37.188 -47.458,-54.908c-23.208,-24.921 -47.792,-48.692 -73.625,-71.183c-47.5,-41.305 -99.292,-78.35 -154.959,-110.567c-5.917,-3.417 -11.833,-6.767 -17.792,-10.055c-27.333,-15.079 -55.167,-28.787 -83.417,-41.116c-38.917,-16.979 -78.708,-31.346 -119.041,-43.063c-88.333,-25.65 -179.583,-38.621 -271.458,-38.621c-21,0 -42.042,0.675 -63.042,2.033c-38,2.454 -76.042,7.129 -113.917,14.046c-26.334,4.804 -52.583,10.691 -78.708,17.667c-52.583,14.042 -103.416,32.154 -152.125,54.058c-36.5,16.429 -71.833,34.991 -105.792,55.587c-10.083,6.105 -20.041,12.396 -29.875,18.854c-15.459,10.133 -30.584,20.7 -45.375,31.687c-8.292,6.154 -16.5,12.442 -24.625,18.858c-25.209,19.971 -49.417,41.196 -72.584,63.621c-6.375,6.196 -12.708,12.479 -18.958,18.858c-10.084,10.329 -19.958,20.892 -29.625,31.687c-5.542,6.212 -11.042,12.496 -16.459,18.858c-8.792,10.363 -17.416,20.929 -25.791,31.687c-4.875,6.221 -9.667,12.509 -14.375,18.858c-15.25,20.533 -29.791,41.763 -43.541,63.621c-3.958,6.246 -7.792,12.508 -11.583,18.858c-2.625,4.4 -5.25,8.841 -7.833,13.291c-3.542,6.1 -7,12.238 -10.375,18.396c-3.458,6.267 -6.833,12.534 -10.166,18.854c-5.459,10.491 -10.75,21.058 -15.875,31.691c-3,6.258 -5.917,12.546 -8.792,18.854c-9.5,20.971 -18.25,42.196 -26.25,63.625c-2.125,5.737 -4.208,11.479 -6.25,17.25c-29.542,84.125 -47.333,171.421 -53.083,259.792c-2.333,35.583 -2.667,71.333 -1.083,107.125c0.5,36.792 3.042,73.458 7.709,109.834c7.375,58.083 20,115.333 37.666,171.042c44.75,141.167 121.875,272.375 228.083,381.5c35.417,36.417 74.083,70.333 115.875,101.375Z" style="fill:#16396b;fill-rule:nonzero;"/><path d="M4185.875,4688.712c-41.792,-31.042 -80.459,-64.958 -115.875,-101.375l19.208,-7.542c29.417,38.625 61.709,75 96.667,108.917Zm-343.959,-482.875c-17.667,-55.708 -30.292,-112.958 -37.666,-171.042l83.792,-32.833c1.291,59.125 7.917,118.458 20,177.416l-66.125,26.458Zm-45.458,-293.042c-0.042,-164.375 41.875,-331 130.125,-483.509c179.167,-309.637 503.833,-482.679 837.583,-482.679c152.166,0 306.125,35.933 449.166,111.316c-36.458,-19.212 -73.625,-35.85 -111.292,-50l-25.042,10.5c-66.417,-14.104 -134.084,-21.213 -202.125,-21.213c-85.25,0 -171.084,11.171 -255.667,33.75c-239.792,64.021 -442.583,212.529 -575.375,420.354l-163.542,68.521c-56.667,126.75 -83.875,260.583 -83.833,392.958Z" style="fill:#c9e3fe;fill-rule:nonzero;"/><path d="M3804.25,4034.795c-5.167,-40.333 -7.75,-81.125 -7.792,-122c-0.042,-132.375 27.166,-266.208 83.833,-392.958l163.542,-68.521c-8,12.466 -15.708,25.146 -23.167,38.029c-91.5,158.158 -136.417,334.492 -132.625,512.617l-83.792,32.833Zm1409.083,-976.871c-44.625,-16.513 -90.208,-29.7 -136.333,-39.5l25.042,-10.5c37.667,14.15 74.833,30.788 111.292,50Z" style="fill:#a5cefc;fill-rule:nonzero;"/><path d="M4070,4587.337c-106.208,-109.125 -183.333,-240.333 -228.083,-381.5l66.125,-26.458c3.917,19.125 8.458,38.292 13.542,57.333c33.709,126.25 90.792,242.208 167.625,343.083l-19.208,7.542Z" style="fill:#afd4fd;fill-rule:nonzero;"/><path d="M9684.208,3040.908l-3226.791,0c-225.459,0 -408.209,-182.775 -408.209,-408.233l0,-0.005c0,-225.462 182.75,-408.233 408.209,-408.233l3226.791,0c225.459,0 408.208,182.771 408.208,408.233l0,0.005c0,225.458 -182.749,408.233 -408.208,408.233Z" style="fill:#f4f7fd;fill-rule:nonzero;"/><path d="M6400.458,2218.249c-218.208,0 -395.75,177.529 -395.75,395.737c0,218.209 177.542,395.734 395.75,395.734l3226.75,0c218.208,0 395.75,-177.525 395.75,-395.734c0,-218.208 -177.542,-395.737 -395.75,-395.737l-3226.75,0Zm3226.75,816.471l-3226.75,0c-232,0 -420.75,-188.742 -420.75,-420.734c0,-231.996 188.75,-420.737 420.75,-420.737l3226.75,0c232,0 420.75,188.742 420.75,420.737c0,231.992 -188.75,420.734 -420.75,420.734Z" style="fill:#102a54;fill-rule:nonzero;"/><path d="M6468.416,2638.749l-39,0c-12.291,0 -22.25,-9.954 -22.25,-22.234l0,-39.029c0,-12.279 9.958,-22.234 22.25,-22.234l39,0c12.292,0 22.25,9.954 22.25,22.234l0,39.029c0,12.279 -9.958,22.234 -22.25,22.234Z" style="fill:#102a54;fill-rule:nonzero;"/><path d="M6614.833,2638.749l-39.042,0c-12.291,0 -22.208,-9.954 -22.208,-22.234l0,-39.029c0,-12.279 9.917,-22.234 22.208,-22.234l39.042,0c12.292,0 22.209,9.954 22.209,22.234l0,39.029c0,12.279 -9.917,22.234 -22.209,22.234Z" style="fill:#102a54;fill-rule:nonzero;"/><path d="M6761.208,2638.749l-39,0c-12.291,0 -22.25,-9.954 -22.25,-22.234l0,-39.029c0,-12.279 9.958,-22.234 22.25,-22.234l39,0c12.292,0 22.25,9.954 22.25,22.234l0,39.029c0,12.279 -9.958,22.234 -22.25,22.234Z" style="fill:#102a54;fill-rule:nonzero;"/><path d="M6907.625,2638.749l-39.042,0c-12.291,0 -22.25,-9.954 -22.25,-22.234l0,-39.029c0,-12.279 9.958,-22.234 22.25,-22.234l39.042,0c12.25,0 22.208,9.954 22.208,22.234l0,39.029c0,12.279 -9.958,22.234 -22.208,22.234Z" style="fill:#102a54;fill-rule:nonzero;"/><path d="M7054,2638.749l-39,0c-12.291,0 -22.25,-9.954 -22.25,-22.234l0,-39.029c0,-12.279 9.958,-22.234 22.25,-22.234l39,0c12.291,0 22.25,9.954 22.25,22.234l0,39.029c0,12.279 -9.958,22.234 -22.25,22.234Z" style="fill:#102a54;fill-rule:nonzero;"/><path d="M7200.417,2638.749l-39.042,0c-12.291,0 -22.25,-9.954 -22.25,-22.234l0,-39.029c0,-12.279 9.958,-22.234 22.25,-22.234l39.042,0c12.25,0 22.208,9.954 22.208,22.234l0,39.029c0,12.279 -9.958,22.234 -22.208,22.234Z" style="fill:#102a54;fill-rule:nonzero;"/><path d="M7346.792,2638.749l-39,0c-12.292,0 -22.25,-9.954 -22.25,-22.234l0,-39.029c0,-12.279 9.958,-22.234 22.25,-22.234l39,0c12.291,0 22.25,9.954 22.25,22.234l0,39.029c0,12.279 -9.958,22.234 -22.25,22.234Z" style="fill:#102a54;fill-rule:nonzero;"/><path d="M7493.204,2638.749l-39.037,0c-12.292,0 -22.25,-9.954 -22.25,-22.234l0,-39.029c0,-12.279 9.958,-22.234 22.25,-22.234l39.037,0c12.255,0 22.213,9.954 22.213,22.234l0,39.029c0,12.279 -9.958,22.234 -22.213,22.234Z" style="fill:#102a54;fill-rule:nonzero;"/><path d="M7639.583,2638.749l-39.046,0c-12.246,0 -22.204,-9.954 -22.204,-22.234l0,-39.029c0,-12.279 9.958,-22.234 22.204,-22.234l39.046,0c12.291,0 22.25,9.954 22.25,22.234l0,39.029c0,12.279 -9.959,22.234 -22.25,22.234Z" style="fill:#102a54;fill-rule:nonzero;"/><path d="M7786,2638.749l-39.041,0c-12.291,0 -22.25,-9.954 -22.25,-22.234l0,-39.029c0,-12.279 9.959,-22.234 22.25,-22.234l39.041,0c12.251,0 22.209,9.954 22.209,22.234l0,39.029c0,12.279 -9.958,22.234 -22.209,22.234Z" style="fill:#102a54;fill-rule:nonzero;"/><path d="M7932.375,2638.749l-39.042,0c-12.25,0 -22.208,-9.954 -22.208,-22.234l0,-39.029c0,-12.279 9.958,-22.234 22.208,-22.234l39.042,0c12.291,0 22.249,9.954 22.249,22.234l0,39.029c0,12.279 -9.958,22.234 -22.249,22.234Z" style="fill:#102a54;fill-rule:nonzero;"/><path d="M8078.791,2638.749l-39.041,0c-12.291,0 -22.25,-9.954 -22.25,-22.234l0,-39.029c0,-12.279 9.959,-22.234 22.25,-22.234l39.041,0c12.25,0 22.209,9.954 22.209,22.234l0,39.029c0,12.279 -9.959,22.234 -22.209,22.234Z" style="fill:#102a54;fill-rule:nonzero;"/><path d="M8225.167,2638.749l-39.042,0c-12.25,0 -22.208,-9.954 -22.208,-22.234l0,-39.029c0,-12.279 9.958,-22.234 22.208,-22.234l39.042,0c12.291,0 22.249,9.954 22.249,22.234l0,39.029c0,12.279 -9.958,22.234 -22.249,22.234Z" style="fill:#102a54;fill-rule:nonzero;"/><path d="M8371.583,2638.749l-39.041,0c-12.292,0 -22.25,-9.954 -22.25,-22.234l0,-39.029c0,-12.279 9.958,-22.234 22.25,-22.234l39.041,0c12.25,0 22.209,9.954 22.209,22.234l0,39.029c0,12.279 -9.959,22.234 -22.209,22.234Z" style="fill:#102a54;fill-rule:nonzero;"/><path d="M8517.959,2638.749l-39.042,0c-12.25,0 -22.209,-9.954 -22.209,-22.234l0,-39.029c0,-12.279 9.959,-22.234 22.209,-22.234l39.042,0c12.291,0 22.249,9.954 22.249,22.234l0,39.029c0,12.279 -9.958,22.234 -22.249,22.234Z" style="fill:#102a54;fill-rule:nonzero;"/><path d="M8664.375,2638.749l-39.041,0c-12.292,0 -22.25,-9.954 -22.25,-22.234l0,-39.029c0,-12.279 9.958,-22.234 22.25,-22.234l39.041,0c12.25,0 22.209,9.954 22.209,22.234l0,39.029c0,12.279 -9.959,22.234 -22.209,22.234Z" style="fill:#102a54;fill-rule:nonzero;"/><path d="M8810.75,2638.749l-39.042,0c-12.25,0 -22.209,-9.954 -22.209,-22.234l0,-39.029c0,-12.279 9.959,-22.234 22.209,-22.234l39.042,0c12.291,0 22.249,9.954 22.249,22.234l0,39.029c0,12.279 -9.958,22.234 -22.249,22.234Z" style="fill:#102a54;fill-rule:nonzero;"/><path d="M8957.167,2638.749l-39.042,0c-12.291,0 -22.249,-9.954 -22.249,-22.234l0,-39.029c0,-12.279 9.958,-22.234 22.249,-22.234l39.042,0c12.25,0 22.209,9.954 22.209,22.234l0,39.029c0,12.279 -9.959,22.234 -22.209,22.234Z" style="fill:#102a54;fill-rule:nonzero;"/><path d="M9103.541,2638.749l-39.041,0c-12.25,0 -22.209,-9.954 -22.209,-22.234l0,-39.029c0,-12.279 9.959,-22.234 22.209,-22.234l39.041,0c12.292,0 22.25,9.954 22.25,22.234l0,39.029c0,12.279 -9.958,22.234 -22.25,22.234Z" style="fill:#102a54;fill-rule:nonzero;"/><path d="M9249.958,2638.749l-39.042,0c-12.291,0 -22.249,-9.954 -22.249,-22.234l0,-39.029c0,-12.279 9.958,-22.234 22.249,-22.234l39.042,0c12.25,0 22.209,9.954 22.209,22.234l0,39.029c0,12.279 -9.959,22.234 -22.209,22.234Z" style="fill:#102a54;fill-rule:nonzero;"/><path d="M9396.333,2638.749l-39.041,0c-12.25,0 -22.209,-9.954 -22.209,-22.234l0,-39.029c0,-12.279 9.959,-22.234 22.209,-22.234l39.041,0c12.292,0 22.25,9.954 22.25,22.234l0,39.029c0,12.279 -9.958,22.234 -22.25,22.234Z" style="fill:#102a54;fill-rule:nonzero;"/><path d="M9542.708,2638.749l-39,0c-12.291,0 -22.249,-9.954 -22.249,-22.234l0,-39.029c0,-12.279 9.958,-22.234 22.249,-22.234l39,0c12.291,0 22.25,9.954 22.25,22.234l0,39.029c0,12.279 -9.959,22.234 -22.25,22.234Z" style="fill:#102a54;fill-rule:nonzero;"/><path d="M9689.125,2638.749l-39.041,0c-12.25,0 -22.209,-9.954 -22.209,-22.234l0,-39.029c0,-12.279 9.959,-22.234 22.209,-22.234l39.041,0c12.292,0 22.25,9.954 22.25,22.234l0,39.029c0,12.279 -9.958,22.234 -22.25,22.234Z" style="fill:#102a54;fill-rule:nonzero;"/><path d="M2327.779,6566.17l-555.9,0c-14.433,0 -24.788,13.917 -20.65,27.75l141.312,471.917c2.729,9.125 11.125,15.375 20.646,15.375l273.283,0c9.521,0 17.917,-6.25 20.646,-15.375l141.313,-471.917c4.137,-13.833 -6.217,-27.75 -20.65,-27.75Z" style="fill:#102a54;fill-rule:nonzero;"/><path d="M2277.467,6336.17c8.896,-23.458 20.392,-46.875 39.613,-63.042c19.225,-16.125 47.8,-23.292 70.008,-11.583c16.321,8.583 33.233,26.792 49.346,17.792c10.029,-5.583 12.246,-18.833 12.929,-30.292c2.233,-37.375 1.762,-79.458 28.396,-105.792c26.233,-25.875 68.692,-25.375 104.421,-16.25c16.854,4.292 35.504,9.958 50.854,1.75c8.213,-4.375 14.058,-12.125 18.917,-20.042c17.117,-28 27.992,-63.833 57.942,-77.167c48.192,-21.5 104.396,32.875 153.958,14.75c19.396,-7.083 35.983,-24.917 56.542,-22.958c10.154,0.958 19.287,6.875 26.333,14.25c23.912,25.042 24.154,69.042 0.354,94.167c-31.633,33.417 -89.687,28.75 -121.679,61.833c-30.733,31.792 -28.196,89.417 -65.7,112.833c-31.596,19.708 -74.221,3.542 -109.325,15.958c-28.162,10 -46.55,36.333 -64.792,60c-18.238,23.667 -41.425,47.75 -71.246,49.625c-15.654,0.958 -31.242,-4.5 -46.863,-3.083c-44.946,4.125 -69.992,60.917 -114.617,67.667c-29.954,4.5 -55.6,-15.458 -76.329,-34.458c-8.233,-7.542 -15.925,-16.083 -18.892,-27.125c-3.566,-13.25 -0.592,-27.625 2.35,-40.708c4.442,-19.75 10.308,-39.167 17.479,-58.125Z" style="fill:#6cb597;fill-rule:nonzero;"/><path d="M1955.138,6243.045c-24.483,-18.208 -39.321,-53.292 -24.846,-80.125c7.05,-13.083 19.621,-22.125 29.554,-33.167c9.933,-11.042 17.529,-26.875 11.646,-40.542c-2.912,-6.75 -8.667,-11.792 -14.229,-16.583c-20.063,-17.375 -40.396,-35.458 -53.025,-58.792c-12.625,-23.333 -16.192,-53.375 -2.225,-75.958c10.546,-17.042 28.975,-27.167 44.975,-39.208c16.004,-12.042 31.183,-29.292 29.85,-49.25c-1.658,-24.917 -28.529,-47.583 -18.542,-70.458c10.346,-23.75 51.662,-22.417 58.421,-47.417c3.363,-12.375 -4.125,-24.833 -7.208,-37.292c-6.863,-27.833 11.962,-59.375 39.696,-66.583c27.733,-7.167 59.508,11.292 67,38.958c5.187,19.125 -0.075,40.417 7.504,58.75c9.834,23.75 37.996,35.125 50.333,57.708c22.7,41.542 -18.537,90.75 -15.079,138c3.658,49.917 56.996,92.375 43.25,140.5c-5.383,18.875 -20.533,33.792 -25.775,52.667c-6.254,22.542 2.529,46.083 8.812,68.625c6.288,22.542 9.288,49.208 -5.817,67.042c-11.179,13.208 -29.354,17.875 -46.458,20.542c-47.408,7.375 -94.521,5.208 -140.387,-9.125c-13.312,-4.167 -26.212,-9.917 -37.45,-18.292Z" style="fill:#6cb597;fill-rule:nonzero;"/><path d="M2048.746,6684.837c-1.087,0 -2.192,-0.292 -3.188,-0.875c-2.833,-1.792 -3.7,-5.5 -1.933,-8.333c43.533,-69.917 97.558,-132.292 160.571,-185.375c69.425,-58.5 148.833,-104.667 225.629,-149.292l521.554,-303.292c2.883,-1.667 6.583,-0.667 8.262,2.208c1.679,2.875 0.696,6.583 -2.188,8.25l-521.554,303.25c-76.346,44.417 -155.296,90.292 -223.917,148.125c-62.042,52.25 -115.233,113.667 -158.1,182.5c-1.142,1.833 -3.117,2.833 -5.137,2.833Z" style="fill:#102a54;fill-rule:nonzero;"/><path d="M2065.492,6659.128c-3.254,0 -5.937,-2.583 -6.033,-5.875c-8.929,-303.292 -2.262,-719.667 4.9,-1015.542c0.083,-3.333 2.792,-5.958 6.187,-5.917c3.338,0.083 5.979,2.875 5.896,6.208c-7.158,295.75 -13.821,711.875 -4.904,1014.875c0.1,3.333 -2.525,6.125 -5.862,6.25l-0.183,0Z" style="fill:#102a54;fill-rule:nonzero;"/><path d="M1764.758,6495.545c-35.217,-3.792 -70.95,-27.125 -77.279,-62c-5.05,-27.792 6.333,-63.583 -16.746,-79.917c-8.096,-5.708 -18.483,-6.917 -28.387,-7.375c-35.821,-1.708 -75.096,2.958 -104.362,-17.75c-42.583,-30.167 -38.325,-92.708 -41.792,-144.792c-0.888,-13.333 -3.125,-27.792 -12.792,-37.042c-10.321,-9.917 -25.896,-11 -39.846,-14.167c-50.837,-11.5 -90.542,-60.625 -91.087,-112.75c-0.163,-15.958 3.354,-32.667 13.958,-44.583c7.213,-8.083 17.183,-13.292 27.538,-16.5c33.029,-10.125 71.562,0.917 94.217,27c14.15,16.292 22.296,37.5 38.242,52.042c45.075,41.125 119.142,7.333 177.121,26.292c32.425,10.625 58.346,39.167 65.817,72.458c6.483,28.875 0.2,61 14.329,87c24.262,44.667 87.9,42.167 134.796,61.792c11.279,4.75 22.333,11.417 28.717,21.833c4.942,8.083 6.667,17.708 7.45,27.125c3.154,38.125 -8.908,76.833 -31.488,107.5c-10.121,13.75 -23.637,29.667 -39.642,36.667c-12.146,5.292 -26.429,3.375 -39.217,6.458c-26.496,6.375 -51.921,13.708 -79.546,10.708Z" style="fill:#6cb597;fill-rule:nonzero;"/><path d="M2033.588,6693.545c-2.158,0 -4.246,-1.167 -5.338,-3.208c-83.433,-156.042 -264.042,-362.125 -350.842,-461.208c-26.016,-29.667 -52.916,-60.375 -84.258,-85.125c-25.762,-20.375 -55.471,-37.5 -84.2,-54.083c-52.708,-30.375 -107.217,-61.833 -139.617,-114.458c-1.75,-2.833 -0.862,-6.583 1.979,-8.333c2.842,-1.75 6.562,-0.833 8.312,2c30.8,50 81.592,79.333 135.362,110.333c29.108,16.792 59.2,34.167 85.658,55.042c32.208,25.458 59.479,56.583 85.854,86.667c87.092,99.375 268.321,306.208 352.413,463.458c1.571,2.958 0.458,6.625 -2.483,8.167c-0.904,0.5 -1.883,0.75 -2.842,0.75Z" style="fill:#102a54;fill-rule:nonzero;"/><path d="M9378.917,3721.712c0,0 -274.5,514.583 -318.583,556.083c-44.042,41.5 -666.084,212.708 -666.084,212.708l24.542,90.125c0,0 770.541,17.875 809.791,0c39.251,-17.875 265.417,-218.667 265.417,-218.667l-115.084,-640.25Z" style="fill:#3c94f8;fill-rule:nonzero;"/><path d="M8999.833,6808.503l18.833,113.042l143.042,0l-8.25,-129.5l-153.625,16.458Z" style="fill:#ffc0b1;fill-rule:nonzero;"/><path d="M8485.333,6785.67l7.875,153.958l127.667,-9.833l18.959,-142.958l-154.5,-1.167Z" style="fill:#ffc0b1;fill-rule:nonzero;"/><path d="M9591.5,4924.545c0,0 -908.542,304.125 -1043.959,439.583c-135.417,135.417 -81.583,1426.917 -81.583,1426.917l194.291,0l273.541,-1062.75c0,0 1101.167,-24.458 1220.209,-233.542c157,-275.833 37.125,-634.958 37.125,-634.958l-599.625,64.75Z" style="fill:#0c203f;fill-rule:nonzero;"/><path d="M9647.209,4996.17c0,0 -755.5,440 -851.459,586.125c-95.917,146.083 190.208,1227.667 190.208,1227.667l176.958,-18.917l45.459,-954.875c0,0 979.459,-225.792 1047.084,-434.708c89.208,-275.542 -84.417,-574.25 -84.417,-574.25l-523.833,168.958Z" style="fill:#102a54;fill-rule:nonzero;"/><path d="M8642.25,6899.878c0,0 -115.667,32.125 -169.249,0l-231.667,121c-31.375,16.417 -51.042,48.875 -51.042,84.292l0,2.458l455.876,0c13.749,0 24.291,-12.167 22.333,-25.75l-26.25,-182Z" style="fill:#0c203f;fill-rule:nonzero;"/><path d="M9168,6899.878c0,0 -115.625,32.125 -169.209,0l-231.667,121c-31.374,16.417 -51.042,48.875 -51.042,84.292l0,2.458l455.876,0c13.75,0 24.291,-12.167 22.333,-25.75l-26.291,-182Z" style="fill:#102a54;fill-rule:nonzero;"/><path d="M9601.666,3584.128l-87.25,-355.408l0,0.021c-0.125,-67.008 -13.25,-147.1 -46.583,-241c-22.084,-62.213 -93.042,-91.879 -153.042,-64.388l-169.125,77.454c-46.042,21.092 -70.708,71.888 -58.709,121.088c14.251,58.312 31.25,134.267 36.709,185.084c4.709,44.391 17,96.121 46.292,134.571c51.208,67.275 141.458,90.133 215.708,56.087l21.083,230.617l194.917,-144.125Z" style="fill:#ffc0b1;fill-rule:nonzero;"/><path d="M9183.625,3284.703c-5.375,0 -10.5,-2 -14.5,-5.729c-4.959,-4.591 -7.417,-11.079 -6.792,-17.8l13.5,-138.054c0.25,-2.671 2.667,-4.633 5.292,-4.371c2.666,0.262 4.625,2.642 4.375,5.317l-13.458,138.054c-0.375,3.671 1,7.213 3.666,9.721c2.709,2.509 6.375,3.579 10.001,2.946l42.041,-7.346c2.667,-0.446 5.167,1.312 5.625,3.958c0.458,2.646 -1.292,5.167 -3.958,5.629l-42.042,7.346c-1.25,0.221 -2.5,0.329 -3.75,0.329Z" style="fill:#102a54;fill-rule:nonzero;"/><path d="M9286.292,3284.407c0,0 -51.375,46.779 -117.084,63.388c0,0 95.417,58.271 117.084,-63.388Z" style="fill:#fff;fill-rule:nonzero;"/><path d="M9205.791,3340.045c-1.917,0 -3.75,-1.133 -4.499,-3.013c-1.042,-2.487 0.166,-5.329 2.625,-6.354c51.292,-21.129 82.208,-56.071 82.5,-56.421c1.791,-2.017 4.833,-2.229 6.875,-0.463c2,1.767 2.208,4.838 0.459,6.863c-1.292,1.5 -32.625,36.975 -86.125,59.016c-0.584,0.25 -1.208,0.371 -1.834,0.371Z" style="fill:#102a54;fill-rule:nonzero;"/><path d="M9148.416,3149.604c0,11.575 -7.583,20.963 -16.916,20.963c-9.292,0 -16.875,-9.388 -16.875,-20.963c0,-11.575 7.584,-20.958 16.875,-20.958c9.333,0 16.916,9.383 16.916,20.958Z" style="fill:#102a54;fill-rule:nonzero;"/><path d="M9261.5,3115.229c0,11.575 -7.542,20.963 -16.875,20.963c-9.333,0 -16.875,-9.388 -16.875,-20.963c0,-11.575 7.542,-20.958 16.875,-20.958c9.333,0 16.875,9.383 16.875,20.958Z" style="fill:#102a54;fill-rule:nonzero;"/><path d="M9083.958,3073.62c0,0 186.917,15.663 268.708,-46.983c0,0 1.709,124.283 31.292,143.93c29.584,19.642 120.292,-0.338 148.584,125.246c0,0 49.791,-136.925 27.167,-297.017c-22.626,-160.092 -123.542,-236.654 -221,-227.954c-97.417,8.7 -456.834,142.225 -254.751,302.779Z" style="fill:#102a54;fill-rule:nonzero;"/><path d="M9388.125,3116.786c-11.166,46.667 1.958,89.805 29.333,96.354c27.375,6.546 58.584,-25.975 69.75,-72.641c11.166,-46.662 -1.958,-89.8 -29.333,-96.35c-27.374,-6.546 -58.583,25.975 -69.75,72.637Z" style="fill:#ffc0b1;fill-rule:nonzero;"/><path d="M9414.875,3164.457c-2.584,0 -4.709,-2.029 -4.834,-4.633c-2.666,-55.054 41.376,-100.104 43.251,-101.996c1.917,-1.904 4.958,-1.921 6.875,-0.03c1.917,1.892 1.917,4.971 0.042,6.879c-0.417,0.438 -42.875,43.967 -40.458,94.679c0.125,2.688 -1.958,4.967 -4.625,5.096l-0.249,0.004Z" style="fill:#102a54;fill-rule:nonzero;"/><path d="M9601.792,3531.391c0,0 541.333,228.404 640.291,1407.821c0,0 -233.374,141.5 -804.416,59.333c0,0 15.291,-127.375 9.958,-179.75c-5.333,-52.333 -175.042,-852.083 -68.708,-1097.083l222.875,-190.321Z" style="fill:#3c94f8;fill-rule:nonzero;"/><path d="M9385.667,3502.499c-1.876,0 -3.709,-1.117 -4.459,-2.975c-1.042,-2.475 0.083,-5.325 2.583,-6.371c0.751,-0.333 54.667,-24.287 85.583,-108.5c0.917,-2.521 3.709,-3.817 6.25,-2.887c2.5,0.925 3.792,3.725 2.876,6.246c-32.542,88.637 -88.583,113.108 -90.959,114.108c-0.584,0.258 -1.25,0.379 -1.875,0.379Z" style="fill:#102a54;fill-rule:nonzero;"/><path d="M9587.875,3806.42c0,0 -170.084,435.208 -220.501,501.542c-50.416,66.375 -819,191.333 -819,191.333l45.417,124.958c0,0 788.291,45.417 884.458,0c96.208,-45.458 312,-200.708 372.583,-420.292c60.583,-219.625 -71.583,-496 -262.958,-397.542Z" style="fill:#3c94f8;fill-rule:nonzero;"/><path d="M9204.209,4649.378c-254.417,0 -589.5,-19.083 -610.709,-20.292c-2.666,-0.167 -4.708,-2.458 -4.542,-5.125c0.125,-2.708 2.334,-4.708 5.126,-4.583c7.875,0.458 788.125,44.833 882.083,0.458c81.541,-38.5 306.916,-188.542 370,-417.167c0.708,-2.583 3.416,-4.125 5.958,-3.417c2.583,0.75 4.125,3.417 3.417,6c-64.084,232.167 -292.543,384.333 -375.209,423.375c-32.917,15.583 -143.583,20.75 -276.125,20.75Z" style="fill:#102a54;fill-rule:nonzero;"/><path d="M8548.375,4504.17c-2.374,0 -4.416,-1.708 -4.833,-4.083c-0.417,-2.667 1.375,-5.167 4.042,-5.583c265.167,-43.125 776.958,-138.208 815.917,-189.458c49.416,-65.083 218.125,-496.083 219.833,-500.417c1,-2.5 3.791,-3.75 6.292,-2.75c2.499,0.958 3.75,3.792 2.791,6.292c-6.958,17.792 -170.917,436.625 -221.167,502.75c-51,67.125 -790.625,188.042 -822.124,193.167l-0.751,0.083Z" style="fill:#102a54;fill-rule:nonzero;"/><path d="M9385.667,4282.878c-2.584,0 -4.709,-2 -4.876,-4.625c-0.125,-3.417 -16.041,-342.417 0.042,-472.458c0.334,-2.667 2.751,-4.542 5.459,-4.208c2.666,0.333 4.542,2.75 4.208,5.417c-16,129.208 -0.125,467.375 0.042,470.792c0.125,2.666 -1.958,4.958 -4.625,5.083l-0.249,0Z" style="fill:#102a54;fill-rule:nonzero;"/><path d="M8562.584,4520.253c0,0 -92.792,-21.5 -133.208,-5.625c-14.583,5.708 -178.292,137.875 -178.292,137.875l241.875,0l93.583,-48.208l-23.958,-84.042Z" style="fill:#ffc0b1;fill-rule:nonzero;"/><path d="M8399.209,4508.795c0,0 -77.292,-5.833 -102.375,0c-25.125,5.792 -153.667,64.542 -153.667,71.834c0,7.292 13.084,17.333 30.126,13.292c17.083,-4 161.708,-43.417 161.708,-43.417c0,0 -82.375,40.417 -94.416,57.5c-12.042,17.083 -23.083,44.5 -23.083,44.5l151.626,0l49.666,-71.875l-19.583,-71.834Z" style="fill:#ffc0b1;fill-rule:nonzero;"/><path d="M8257.417,4656.67c-0.417,0 -0.833,-0.083 -1.25,-0.209c-2.167,-0.667 -3.417,-3.042 -2.708,-5.208c0.208,-0.625 4.916,-15.333 19.5,-29.917c14.166,-14.167 125.25,-90.416 130,-93.667c1.875,-1.292 4.5,-0.833 5.791,1.083c1.292,1.875 0.834,4.458 -1.082,5.792c-1.167,0.792 -115.209,79.083 -128.792,92.667c-13.208,13.167 -17.416,26.375 -17.458,26.5c-0.584,1.792 -2.208,2.958 -4,2.958Z" style="fill:#102a54;fill-rule:nonzero;"/><path d="M9796.333,5786.795l-318.083,1320.833l26.416,0l405.167,-1327.917l-113.5,7.083Z" style="fill:#102a54;fill-rule:nonzero;"/><path d="M10243.125,5786.795l318.084,1320.833l-26.417,0l-405.167,-1327.917l113.5,7.083Z" style="fill:#102a54;fill-rule:nonzero;"/><path d="M9518.25,5733.17c0,0 467,-235.083 689.458,-586.75c116.708,-184.458 130.333,-666.833 226.667,-674.25c96.333,-7.417 185.25,148.208 214.875,318.625c29.624,170.417 29.624,825.208 -185.251,942.375c-214.874,117.167 -957.875,169.042 -1008.708,146.792c-50.833,-22.208 -67.792,-71.292 62.958,-146.792Z" style="fill:#7fc0ff;fill-rule:nonzero;"/><path d="M9722.959,4784.378l-3304.083,0c-20.792,0 -37.667,-16.875 -37.667,-37.708c0,-20.792 16.875,-37.708 37.667,-37.708l3304.083,0c20.833,0 37.709,16.917 37.709,37.708c0,20.833 -16.875,37.708 -37.709,37.708Z" style="fill:#7fc0ff;fill-rule:nonzero;"/><path d="M6612.375,7107.628l-58.375,0l449.291,-2323.25l58.375,0l-449.291,2323.25Z" style="fill:#7fc0ff;fill-rule:nonzero;"/><path d="M9529.5,7107.628l58.375,0l-449.334,-2323.25l-58.333,0l449.292,2323.25Z" style="fill:#7fc0ff;fill-rule:nonzero;"/><path d="M7620.583,4652.503l-381.833,-891.042c-3.916,-9.162 -12.958,-15.125 -22.958,-15.125c-17.958,0 -30.042,18.333 -22.958,34.834l397.583,927.792l943.917,0c15.625,0 28.25,-12.625 28.25,-28.208c0,-15.625 -12.625,-28.25 -28.25,-28.25l-913.75,0Z" style="fill:#102a54;fill-rule:nonzero;"/><path d="M12430.167,7114.462l-12413.5,0c-9.204,0 -16.667,-7.458 -16.667,-16.667c0,-9.167 7.463,-16.667 16.667,-16.667l12413.5,0c9.208,0 16.667,7.5 16.667,16.667c0,9.208 -7.458,16.667 -16.667,16.667Z" style="fill:#102a54;fill-rule:nonzero;"/><path d="M5205.792,3882.67c0,-234.583 -190.208,-424.758 -424.792,-424.758c-234.583,0 -424.75,190.175 -424.75,424.758c0,127.375 56.041,241.625 144.833,319.5c7.75,-122.333 93.875,-223.375 208.708,-253.417c-52.916,-26.25 -89.292,-80.792 -89.292,-143.833c0,-88.667 71.875,-160.542 160.5,-160.542c88.667,0 160.5,71.875 160.5,160.542c0,63.042 -36.375,117.583 -89.291,143.833c114.875,30.042 200.958,131.083 208.708,253.417c88.791,-77.875 144.875,-192.125 144.875,-319.5Z" style="fill:#80c0ff;fill-rule:nonzero;"/><path d="M4852.209,3948.753c52.916,-26.25 89.291,-80.792 89.291,-143.833c0,-88.667 -71.833,-160.542 -160.5,-160.542c-88.625,0 -160.5,71.875 -160.5,160.542c0,63.042 36.375,117.583 89.292,143.833c-114.834,30.042 -200.958,131.083 -208.708,253.417c74.75,65.542 172.708,105.292 279.916,105.292c107.25,0 205.167,-39.75 279.917,-105.292c-7.75,-122.333 -93.833,-223.375 -208.708,-253.417Z" style="fill:#3c94f8;fill-rule:nonzero;"/><path d="M9361.584,1056.349c-80.876,-9.575 -154.167,48.216 -163.75,129.083c9.584,-80.867 -48.209,-154.179 -129.083,-163.754c-80.875,-9.575 -154.167,48.221 -163.75,129.087c-1.125,9.342 -1.292,18.571 -0.666,27.625c3.125,244.463 253.624,344.025 253.624,344.025c0,0 266.792,-38.325 326.917,-275.3c2.709,-8.658 4.709,-17.671 5.792,-27.013c9.584,-80.866 -48.209,-154.183 -129.083,-163.754Z" style="fill:#80c0ff;fill-rule:nonzero;"/></svg>